<?xml version="1.0" encoding="UTF-8"?>
<!DOCTYPE svg PUBLIC "-//W3C//DTD SVG 1.1//EN" "http://www.w3.org/Graphics/SVG/1.1/DTD/svg11.dtd">
<svg version="1.2" xmlns="http://www.w3.org/2000/svg" xmlns:xlink="http://www.w3.org/1999/xlink" x="0" y="0" width="1074" height="208" viewBox="0 0 1074 208">
<style type="text/css"><![CDATA[
text { font:12px Dialog; }
]]></style>
<rect x="-1525" y="-1030" width="4126" height="2356" style="fill:rgb(255,255,255);stroke:none" />
<clipPath id="clip1"><path d="M6,15 L1069,15 L1069,193 L6,193 Z M392,18 L392,102 L682,102 L682,18 Z" /></clipPath>
<path d="M537,112 L121,112 C116.5840149,112 113,115.5839996 113,120 L113,138" style="fill:none;stroke:rgb(85,142,213)" clip-path="url(#clip1)" />
<clipPath id="clip2"><path d="M6,15 L1069,15 L1069,193 L6,193 Z M392,18 L392,102 L682,102 L682,18 Z" /></clipPath>
<path d="M537,112 L406,112 C401.5839844,112 398,115.5839996 398,120 L398,138" style="fill:none;stroke:rgb(85,142,213)" clip-path="url(#clip2)" />
<clipPath id="clip3"><path d="M6,15 L1069,15 L1069,193 L6,193 Z M392,18 L392,102 L682,102 L682,18 Z" /></clipPath>
<path d="M537,112 L814,112 C818.4160156,112 822,115.5839996 822,120 L822,138" style="fill:none;stroke:rgb(85,142,213)" clip-path="url(#clip3)" />
<clipPath id="clip4"><path d="M5,14 L1070,14 L1070,194 L5,194 L5,14 Z" /></clipPath>
<path d="M537,102 L537,112" style="fill:none;stroke:rgb(85,142,213)" clip-path="url(#clip4)" />
<clipPath id="clip5"><path d="M388,14 L687,14 L687,107 L388,107 L388,14 Z" /></clipPath>
<path d="M392,18 L392,102 L682,102 L682,18 Z" style="fill:rgb(220,230,242);stroke:none" clip-path="url(#clip5)" />
<clipPath id="clip6"><path d="M388,14 L687,14 L687,107 L388,107 L388,14 Z" /></clipPath>
<path d="M392,18 L392,102 L682,102 L682,18 Z" style="fill:none;stroke:rgb(85,142,213);stroke-width:5" clip-path="url(#clip6)" />
<clipPath id="clip7"><path d="M424,34 L651,34 L651,87 L424,87 L424,34 Z" /></clipPath>
<path d="M427.4169922,62.3105469 L442.9208984,62.3105469 L442.9208984,58.0917969 L429.9833984,58.0917969 L429.9833984,53.4511719 L442.9208984,53.4511719 L442.9208984,49.3203125 L430.6513672,49.7246094 C430.3935547,48.4824219 430.0068359,46.9003906 429.4912109,44.9785156 C442.2646484,44.8144531 451.9912109,44.4746132 458.6708984,43.9589844 L460.2177734,48.5996094 L448.2294922,49.1269531 L448.2294922,53.4511719 L459.7255859,53.4511719 L459.7255859,58.0917969 L448.2294922,58.0917969 L448.2294922,62.3105469 L462.2568359,62.3105469 L462.2568359,67.0566406 L448.2294922,67.0566406 L448.2294922,71.3105469 C448.2294922,72.4355469 448.015625,73.4375 447.5878906,74.3164063 C447.1601563,75.1953125 446.5273438,75.8574219 445.6894531,76.3027344 C444.8515625,76.7480469 444.1425781,77.0205078 443.5625,77.1201172 C442.9824219,77.2197266 440.4716797,77.3105469 436.0302734,77.3925781 C435.6083984,75.4003906 435.2099609,73.6308594 434.8349609,72.0839844 C437.2490234,72.2714844 439.1123047,72.3652344 440.4248047,72.3652344 C442.0888672,72.3652344 442.9208984,71.4980469 442.9208984,69.7636719 L442.9208984,67.0566406 L427.4169922,67.0566406 Z M477.7783203,60.6933594 L481.5224609,69.5527344 C483.1279297,66.6464844 483.9130859,61.3261719 483.8779297,53.5917969 L480.3095703,53.5917969 L480.3095703,48.9511719 L483.9833984,48.9511719 L484.0361328,42.9746094 L488.7119141,42.9746094 L488.6416016,48.9511719 L497.8525391,48.9511719 L497.4482422,68.8144531 C497.3779297,71.4863281 497.2636719,73.15625 497.1054688,73.8242188 C496.9472656,74.4921875 496.6220703,75.0869141 496.1298828,75.6083984 C495.6376953,76.1298828 494.9931641,76.5078125 494.1962891,76.7421875 C493.3994141,76.9765625 491.3017578,77.1113281 487.9033203,77.1464844 C487.5283203,75.3652344 487.1064453,73.6074219 486.6376953,71.8730469 C488.1845703,71.9667969 489.4677734,72.0136719 490.4873047,72.0136719 C491.1669922,72.0136719 491.6884766,71.8789063 492.0517578,71.609375 C492.4150391,71.3398438 492.6289063,70.9501953 492.6933594,70.4404297 C492.7578125,69.9306641 492.8339844,68.1318359 492.921875,65.0439453 C493.0097656,61.9560547 493.0712891,58.1386719 493.1064453,53.5917969 L488.5537109,53.5917969 C488.4482422,58.8183594 488.2373047,62.5595703 487.9208984,64.8154297 C487.6044922,67.0712891 486.9541016,69.3535156 485.9697266,71.6621094 C484.9853516,73.9707031 483.7080078,76.0214844 482.1376953,77.8144531 C480.8017578,76.7597656 479.3720703,75.7753906 477.8486328,74.8613281 C478.5283203,74.1699219 479.1494141,73.4375 479.7119141,72.6640625 L469.9560547,73.4902344 C468.4912109,73.6660156 467.3720703,73.9121094 466.5986328,74.2285156 L464.4189453,69.9746094 C465.6494141,68.9785156 467.1552734,65.2988281 468.9365234,58.9355469 L464.5595703,58.9355469 L464.5595703,54.4355469 L480.8017578,54.4355469 L480.8017578,58.9355469 L474.0517578,58.9355469 C472.9619141,62.2988281 471.8017578,65.5683594 470.5712891,68.7441406 C472.7041016,68.6855469 474.6318359,68.609375 476.3544922,68.515625 C475.5107422,66.1601563 474.6845703,63.9863281 473.8759766,61.9941406 Z M479.5712891,50.0761719 L466.0712891,50.0761719 L466.0712891,45.5761719 L479.5712891,45.5761719 Z M524.6943359,52.0449219 C524.5537109,56.8964844 524.2490234,60.7636719 523.7802734,63.6464844 L536.0498047,63.6464844 L536.0498047,68.0058594 L522.6904297,68.0058594 C522.6435547,68.1464844 522.5498047,68.3574219 522.4091797,68.6386719 C526.9326172,70.1152344 531.4208984,71.6738281 535.8740234,73.3144531 L534.0458984,77.7089844 C529.3115234,75.7167969 524.6005859,73.8417969 519.9130859,72.0839844 C516.8427734,74.9667969 512.1435547,76.9707031 505.8154297,78.0957031 C504.6669922,76.1035156 503.6708984,74.5332031 502.8271484,73.3847656 C510.3505859,72.3066406 515.1552734,70.5136719 517.2412109,68.0058594 L501.9130859,68.0058594 L501.9130859,63.6464844 L513.0224609,63.6464844 C510.5380859,62.1464844 508.2646484,60.8808594 506.2021484,59.8496094 L508.3818359,56.4394531 C510.5380859,57.4707031 513.0107422,58.7597656 515.7998047,60.3066406 L513.5849609,63.6464844 L518.8232422,63.6464844 C519.4091797,60.6464844 519.7373047,56.7792969 519.8076172,52.0449219 Z M502.6513672,55.6308594 L502.6513672,46.4902344 L516.8193359,46.4902344 C516.3740234,45.3417969 515.9755859,44.3574219 515.6240234,43.5371094 L521.6357422,42.9042969 C521.9873047,43.8652344 522.3857422,45.0605469 522.8310547,46.4902344 L535.2412109,46.4902344 L535.2412109,55.6308594 L530.3544922,55.6308594 L530.3544922,50.7089844 L507.5380859,50.7089844 L507.5380859,55.6308594 Z M511.1591797,51.7285156 C513.6201172,52.8066406 516.1513672,54.0019531 518.7529297,55.3144531 L516.5380859,58.9003906 C513.7724609,57.3535156 511.2998047,56.0644531 509.1201172,55.0332031 Z M551.9580078,66.3535156 L551.9580078,44.2402344 L571.2236328,44.2402344 L571.2236328,66.0722656 L566.5830078,66.0722656 L566.5830078,48.8457031 L556.5986328,48.8457031 L556.5986328,66.3535156 Z M539.9345703,76.0566406 L538.4580078,70.9238281 L542.6064453,69.4648438 L542.6064453,60.8339844 L539.1962891,60.8339844 L539.1962891,56.1933594 L542.6064453,56.1933594 L542.6064453,49.3730469 L538.9501953,49.3730469 L538.9501953,44.7324219 L550.9384766,44.7324219 L550.9384766,49.3730469 L547.1767578,49.3730469 L547.1767578,56.1933594 L550.4462891,56.1933594 L550.4462891,60.8339844 L547.1767578,60.8339844 L547.1767578,67.7070313 C548.5361328,67.15625 549.6845703,66.6464844 550.6220703,66.1777344 C550.7392578,68.1230469 550.8916016,69.7988281 551.0791016,71.2050781 C547.1416016,72.8222656 543.4267578,74.4394531 539.9345703,76.0566406 Z M569.0087891,67.3027344 C570.8134766,68.1699219 572.3134766,68.8144531 573.5087891,69.2363281 C572.9931641,73.0332031 572.3515625,75.2832031 571.5839844,75.9863281 C570.8164063,76.6894531 569.9111328,77.0410156 568.8681641,77.0410156 L565.1416016,77.0410156 C562.3525391,77.0410156 560.9580078,75.7167969 560.9580078,73.0683594 L560.9580078,68.4453125 C559.0830078,72.125 556.0595703,75.2363281 551.8876953,77.7792969 C550.9033203,76.4667969 549.7548828,75.1074219 548.4423828,73.7011719 C552.6494141,71.5683594 555.4824219,69.1337891 556.9414063,66.3974609 C558.4003906,63.6611328 559.1181641,58.5253906 559.0947266,50.9902344 L563.8408203,50.9902344 C563.7939453,56.0761719 563.3955078,60.2597656 562.6455078,63.5410156 L565.3876953,63.5410156 L565.3876953,71.3808594 C565.3876953,72.4121094 565.8857422,72.9277344 566.8818359,72.9277344 C567.6552734,72.9277344 568.1621094,72.6611328 568.4023438,72.1279297 C568.6425781,71.5947266 568.8447266,69.9863281 569.0087891,67.3027344 Z M576.9365234,77.6035156 L576.9365234,62.2753906 C576.4208984,61.4550781 575.8583984,60.6113281 575.2490234,59.7441406 C577.0068359,58.6191406 578.7646484,57.3183594 580.5224609,55.8417969 L576.0576172,55.8417969 L576.0576172,52.5371094 L578.7294922,52.5371094 C578.1435547,51.5527344 577.4404297,50.4394531 576.6201172,49.1972656 L578.5537109,48.1074219 C578.0615234,48.1308594 577.5693359,48.1542969 577.0771484,48.1777344 C576.9365234,47.0761719 576.7373047,45.8925781 576.4794922,44.6269531 C581.9873047,44.4394531 587.2021484,44.1230469 592.1240234,43.6777344 L592.6513672,47.1933594 C590.6591797,47.3574219 588.6552734,47.4980469 586.6396484,47.6152344 L586.6396484,52.5371094 L589.5224609,52.5371094 L587.7294922,51.2363281 C588.5498047,50.1113281 589.3935547,48.8925781 590.2607422,47.5800781 L592.9326172,49.2324219 C592.0654297,50.4511719 591.2568359,51.5527344 590.5068359,52.5371094 L593.1083984,52.5371094 L592.8974609,51.9042969 L595.6748047,50.7792969 C596.2841797,52.3730469 596.8583984,53.9316406 597.3974609,55.4550781 L597.3974609,48.8457031 L593.5302734,48.8457031 L593.5302734,44.6269531 L600.9482422,44.6269531 L600.9482422,51.7285156 L603.5498047,50.7441406 C604.2060547,52.4785156 604.8388672,54.2363281 605.4482422,56.0175781 L605.4482422,48.8105469 L601.7216797,48.8105469 L601.7216797,44.5917969 L609.2099609,44.5917969 L609.2099609,73.7011719 C609.2099609,76.0449219 608.2373047,77.2636719 606.2919922,77.3574219 C605.1201172,77.4277344 603.9833984,77.4628906 602.8818359,77.4628906 C602.6708984,76.1035156 602.3544922,74.6503906 601.9326172,73.1035156 C602.6591797,73.1503906 603.4560547,73.1738281 604.3232422,73.1738281 C605.0732422,73.1738281 605.4482422,72.7402344 605.4482422,71.8730469 L605.4482422,63.8574219 C604.5810547,65.6855469 603.6318359,67.5019531 602.6005859,69.3066406 L600.9482422,68.2519531 L600.9482422,73.8769531 C600.9482422,76.1035156 599.9990234,77.2753906 598.1005859,77.3925781 C596.9990234,77.4628906 595.8857422,77.4980469 594.7607422,77.4980469 C594.5498047,76.1386719 594.2333984,74.6738281 593.8115234,73.1035156 C594.5146484,73.1503906 595.2880859,73.1738281 596.1318359,73.1738281 C596.9755859,73.1972656 597.3974609,72.7519531 597.3974609,71.8378906 L597.3974609,64.2792969 C596.5302734,66.0839844 595.6865234,67.7597656 594.8662109,69.3066406 L592.7216797,67.9355469 L592.7216797,77.6035156 L589.1357422,77.6035156 L589.1357422,76.2324219 L580.5224609,76.2324219 L580.5224609,77.6035156 Z M586.6396484,61.5019531 L583.0888672,61.5019531 L583.0888672,57.4238281 C581.6123047,59.0410156 580.0185547,60.5527344 578.3076172,61.9589844 L592.7216797,61.9589844 L592.7216797,66.0019531 C593.6357422,64.3144531 594.6201172,62.4042969 595.6748047,60.2714844 L597.3974609,61.1503906 L597.3974609,58.0917969 L595.2529297,59.0410156 C594.6201172,56.9550781 593.9404297,54.8691406 593.2138672,52.7832031 L593.2138672,55.8417969 L586.6396484,55.8417969 L586.6396484,57.9511719 L588.0458984,56.1230469 C590.0849609,57.0605469 592.0068359,58.0214844 593.8115234,59.0058594 L591.9130859,61.7832031 C590.2490234,60.7753906 588.4912109,59.7910156 586.6396484,58.8300781 Z M603.3740234,60.2363281 L605.4482422,61.2558594 L605.4482422,57.9863281 L602.9873047,58.9707031 C602.3779297,56.7441406 601.6982422,54.5761719 600.9482422,52.4667969 L600.9482422,65.1230469 C601.7451172,63.6230469 602.5537109,61.9941406 603.3740234,60.2363281 Z M579.4677734,48.0722656 C580.2646484,49.1035156 581.0380859,50.1933594 581.7880859,51.3417969 L579.8896484,52.5371094 L583.0888672,52.5371094 L583.0888672,47.8613281 C581.8935547,47.9316406 580.6865234,48.0019531 579.4677734,48.0722656 Z M586.4287109,72.9980469 L589.1357422,72.9980469 L589.1357422,70.4316406 L586.4287109,70.4316406 Z M589.1357422,65.1933594 L586.4287109,65.1933594 L586.4287109,67.7597656 L589.1357422,67.7597656 Z M580.5224609,67.7597656 L583.2294922,67.7597656 L583.2294922,65.1933594 L580.5224609,65.1933594 Z M580.5224609,72.9980469 L583.2294922,72.9980469 L583.2294922,70.4316406 L580.5224609,70.4316406 Z M623.9580078,54.2597656 L627.5439453,54.2597656 C626.9228516,53.2285156 626.2197266,52.1503906 625.4345703,51.0253906 L629.1611328,49.1972656 C630.2158203,50.6269531 631.1298828,51.9511719 631.9033203,53.1699219 L629.7236328,54.2597656 L633.3798828,54.2597656 L633.3798828,49.1269531 L624.9775391,49.1269531 L624.9775391,45.7519531 L633.3798828,45.7519531 L633.3798828,43.1152344 L637.8798828,43.1152344 L637.8798828,45.7519531 L646.5283203,45.7519531 L646.5283203,49.1269531 L637.8798828,49.1269531 L637.8798828,54.2597656 L639.0751953,54.2597656 C640.2353516,52.4667969 641.2314453,50.7910156 642.0634766,49.2324219 L646.2119141,51.0957031 C645.4736328,52.1855469 644.7119141,53.2402344 643.9267578,54.2597656 L647.5830078,54.2597656 L647.5830078,57.6347656 L623.9580078,57.6347656 Z M613.5517578,74.0175781 L612.6376953,68.8847656 L616.1884766,67.953125 L616.1884766,57.2128906 L613.3056641,57.2128906 L613.3056641,52.4667969 L616.1884766,52.4667969 L616.1884766,43.1152344 L620.7587891,43.1152344 L620.7587891,52.4667969 L623.2548828,52.4667969 L623.2548828,57.2128906 L620.7587891,57.2128906 L620.7587891,66.6699219 L623.6767578,65.7910156 C623.6064453,67.2441406 623.6064453,68.8613281 623.6767578,70.6425781 C620.4189453,71.6035156 617.0439453,72.7285156 613.5517578,74.0175781 Z M624.9423828,77.7792969 L624.9423828,59.6386719 L646.3173828,59.6386719 L646.3173828,77.7792969 L642.3095703,77.7792969 L642.3095703,76.1269531 L628.9501953,76.1269531 L628.9501953,77.7792969 Z M628.9501953,62.8730469 L628.9501953,72.8925781 L642.3095703,72.8925781 L642.3095703,62.8730469 Z M630.8837891,64.4199219 L640.3759766,64.4199219 L640.3759766,71.3457031 L630.8837891,71.3457031 Z M637.1416016,68.8144531 L637.1416016,66.9511719 L634.1181641,66.9511719 L634.1181641,68.8144531 Z" style="fill:rgb(55,96,146);stroke:none" clip-path="url(#clip7)" />
<clipPath id="clip8"><path d="M5,136 L222,136 L222,194 L5,194 L5,136 Z" /></clipPath>
<path d="M7,138 L7,191 L219,191 L219,138 Z" style="fill:rgb(220,230,242);stroke:none" clip-path="url(#clip8)" />
<clipPath id="clip9"><path d="M5,136 L222,136 L222,194 L5,194 L5,136 Z" /></clipPath>
<path d="M7,138 L7,191 L219,191 L219,138 Z" style="fill:none;stroke:rgb(85,142,213);stroke-width:2" clip-path="url(#clip9)" />
<clipPath id="clip10"><path d="M19,145 L208,145 L208,185 L19,185 L19,145 Z" /></clipPath>
<path d="M39.0562134,154.4628906 L31.8325806,174.1279297 L29.0142212,174.1279297 L21.9302368,154.4628906 L24.7485962,154.4628906 L30.0425415,169.8369141 C30.2202759,170.3447266 30.3514404,170.9329376 30.4360962,171.6015625 L30.4995728,171.6015625 C30.5672607,171.0175781 30.7153931,170.4208984 30.9439087,169.8115234 L36.3394165,154.4628906 Z M44.8960571,166.7773438 L44.8960571,174.1279297 L42.3569946,174.1279297 L42.3569946,154.4628906 L47.9429321,154.4628906 C50.0672607,154.4628906 51.7155457,154.9749298 52.8877563,155.9990234 C54.0599365,157.0231018 54.6460571,158.4873047 54.6460571,160.3916016 C54.6460571,162.3212891 53.9605103,163.8849182 52.5894165,165.0825195 C51.2183228,166.2801056 49.5044556,166.845047 47.4478149,166.7773438 Z M44.8960571,156.6972656 L44.8960571,164.5429688 L47.2446899,164.5429688 C48.7935181,164.5429688 49.9699402,164.1938477 50.7739868,163.4956055 C51.5780029,162.7973633 51.9800415,161.7965393 51.9800415,160.4931641 C51.9800415,157.9625549 50.4819946,156.6972656 47.4859009,156.6972656 Z M57.8325806,170.4335938 C58.4334717,170.9583282 59.2375183,171.3899689 60.2446899,171.7285156 C61.2518311,172.0670471 62.2082214,172.2363281 63.1138306,172.2363281 C65.8729248,172.2363281 67.2524719,171.2545471 67.2525024,169.2910156 C67.2524719,168.7408752 67.1043701,168.2457581 66.8081665,167.8056641 C66.5119324,167.3655548 66.1056824,166.9762268 65.5894165,166.6376953 C65.0731201,166.2991486 64.1040649,165.7786407 62.6821899,165.0761719 C60.7101746,164.0943909 59.4110107,163.1824493 58.784729,162.340332 C58.1584167,161.4981995 57.8452759,160.5354767 57.8452759,159.4521484 C57.8452759,157.8186798 58.5011902,156.5237579 59.8130493,155.5673828 C61.1248779,154.6109924 62.7795105,154.1328125 64.7769165,154.1328125 C66.7319641,154.1328125 68.1665344,154.3697815 69.0806274,154.84375 L69.0806274,157.6113281 C67.8957214,156.7903595 66.3976746,156.3798828 64.5864868,156.3798828 C63.3846436,156.3798828 62.4049988,156.6316681 61.647522,157.1352539 C60.8900146,157.6388245 60.5112915,158.3391876 60.5112915,159.2363281 C60.5112915,160.0318909 60.7736511,160.6793518 61.2984009,161.1787109 C61.8231201,161.6780548 62.9614868,162.359375 64.7134399,163.2226563 C66.6431274,164.1451721 67.993042,165.0677032 68.7632446,165.9902344 C69.5334167,166.9127502 69.9185181,167.9495392 69.9185181,169.1005859 C69.9185181,170.8271484 69.2922058,172.1516876 68.0396118,173.0742188 C66.7869873,173.9967346 65.0477295,174.4580078 62.8218384,174.4580078 C62.0431824,174.4580078 61.1354675,174.3500977 60.0986938,174.1342773 C59.0618896,173.918457 58.3065186,173.6497345 57.8325806,173.328125 Z M83.1089478,154.0566406 L95.6519165,154.0566406 C95.5672607,155.4277344 95.4995728,156.5110626 95.4487915,157.3066406 C95.3133545,159.9303284 93.9761353,161.2167969 91.4370728,161.1660156 C90.743042,161.1490784 89.6512451,161.1152344 88.1616821,161.0644531 C88.0601196,160.4042969 87.9500732,159.735672 87.831604,159.0585938 C89.084198,159.2109375 90.2098389,159.3040314 91.2085571,159.3378906 C92.6642761,159.3886719 93.4513855,158.6946564 93.5698853,157.2558594 C93.6206665,156.8157501 93.6629639,156.3333282 93.6968384,155.8085938 L85.0386353,155.8085938 L85.0386353,163.1210938 L95.753479,163.1210938 L95.753479,164.6191406 C95.0763855,167.5898438 93.8364563,170.1754456 92.0337524,172.3759766 C93.4979248,173.7639923 95.3133545,174.8430939 97.4800415,175.6132813 C96.9045105,176.2903595 96.4136353,176.8997345 96.0073853,177.4414063 C93.925354,176.4680939 92.1607056,175.2578125 90.7134399,173.8105469 C89.4185181,175.0885315 87.899292,176.2141876 86.1558228,177.1875 C85.834198,176.6289063 85.4871826,176.0703125 85.1148071,175.5117188 C86.8074951,174.6484375 88.2674561,173.6158752 89.4946899,172.4140625 C87.8442993,170.298172 86.7567139,167.7506409 86.2319946,164.7714844 L85.0386353,164.7714844 L85.0386353,177.390625 L83.1089478,177.390625 Z M73.8413696,153.9550781 L81.0015259,153.9550781 L81.0015259,174.546875 C81.0015259,176.2395782 80.2144165,177.0859375 78.6401978,177.0859375 C77.7769165,177.0859375 76.9728699,177.0605469 76.2280884,177.0097656 C76.1603699,176.5019531 76.0588074,175.9010315 75.9234009,175.2070313 C76.7866516,175.3424377 77.5314636,175.4101563 78.1577759,175.4101563 C78.8517761,175.4101563 79.1987915,175.0631409 79.1987915,174.3691406 L79.1987915,168.5292969 L75.644104,168.5292969 C75.6948853,172.4225159 74.9924011,175.393219 73.5366821,177.4414063 C73.1642761,176.9505157 72.698761,176.4765625 72.1401978,176.0195313 C73.274292,174.2760315 73.8413696,171.8046875 73.8413696,168.6054688 Z M93.7476196,164.7714844 L87.9712524,164.7714844 C88.4959717,167.2089844 89.4312134,169.282547 90.7769165,170.9921875 C92.1733704,169.2232971 93.1636047,167.1497345 93.7476196,164.7714844 Z M75.644104,166.9550781 L79.1987915,166.9550781 L79.1987915,162.0546875 L75.644104,162.0546875 Z M79.1987915,155.6054688 L75.644104,155.6054688 L75.644104,160.4804688 L79.1987915,160.4804688 Z M106.1509399,152.2285156 L108.0552368,153.0410156 C107.6743774,153.6673126 107.2765808,154.2766876 106.8618774,154.8691406 L120.5982056,154.8691406 L120.5982056,156.5703125 C119.0239563,158.4830627 116.8699951,160.1546173 114.1362915,161.5849609 C116.9800415,162.6175079 120.3696899,163.2565002 124.3052368,163.5019531 C123.7635498,164.2636719 123.2895813,164.9746094 122.8833618,165.6347656 C118.4738464,165.0507813 114.7752686,164.0647736 111.7876587,162.6767578 C108.4276123,164.1070862 104.3651123,165.236969 99.6001587,166.0664063 C99.3123779,165.5416565 98.9653625,164.9492188 98.5591431,164.2890625 C102.7993774,163.6373596 106.4810181,162.7148438 109.6040649,161.5214844 C107.6743774,160.345047 106.1297607,158.9527893 104.9702759,157.3447266 C103.6584167,158.9020081 102.2069092,160.345047 100.6157837,161.6738281 C100.1079712,161.1321564 99.6424561,160.6751251 99.2192993,160.3027344 C102.3338623,157.8313751 104.6444092,155.1399689 106.1509399,152.2285156 Z M100.8189087,167.1074219 L108.2075806,167.1074219 C108.3260498,166.2864532 108.4276123,165.3723907 108.5122681,164.3652344 L110.5689087,164.3652344 C110.4588623,165.3723907 110.3446045,166.2864532 110.2261353,167.1074219 L120.4712524,167.1074219 C120.3019714,170.1373596 120.1411438,172.2617188 119.9888306,173.4804688 C119.7179871,175.8671875 118.2961121,177.0690002 115.7232056,177.0859375 C114.7244873,177.1028595 113.2264404,177.0690002 111.2290649,176.984375 C111.1274719,176.3580627 111.0005188,175.6555939 110.8482056,174.8769531 C112.7947998,175.0462189 114.4028931,175.1393127 115.6724243,175.15625 C117.1112061,175.1223907 117.9067993,174.3945313 118.0591431,172.9726563 C118.2114868,171.703125 118.3215027,170.3489532 118.3892212,168.9101563 L109.9214478,168.9101563 C109.024292,172.9811096 105.8716125,175.9348907 100.4634399,177.7714844 C100.0740967,177.2128906 99.6593933,176.6458282 99.2192993,176.0703125 C104.0773621,174.4960938 106.9549561,172.109375 107.8521118,168.9101563 L100.8189087,168.9101563 Z M117.8814087,156.5449219 L106.5444946,156.5449219 C107.9071045,158.1783752 109.6590576,159.5240784 111.800354,160.5820313 C114.2463074,159.4394531 116.2733154,158.09375 117.8814087,156.5449219 Z M126.425354,163.1972656 L136.6831665,163.1972656 C136.9455261,162.5625 137.1148071,161.8261719 137.190979,160.9882813 L139.019104,161.2421875 C138.9175415,161.953125 138.7694092,162.6048126 138.5747681,163.1972656 L144.1099243,163.1972656 C143.4328308,162.7063751 142.7176514,162.2239532 141.9644165,161.75 L143.0054321,160.6074219 C144.1226196,161.2675781 145.1297607,161.9277344 146.0269165,162.5878906 L145.4556274,163.1972656 L150.190979,163.1972656 L150.190979,164.8730469 L140.3901978,164.8730469 C142.3452759,166.7857971 145.8153076,167.6914063 150.800354,167.5898438 C150.3940735,168.283844 150.0470886,168.9355469 149.7593384,169.5449219 C149.3107605,169.5110626 148.8791199,169.4729767 148.4644165,169.4306641 L148.4644165,177.1875 L146.6870728,177.1875 L146.6870728,175.7910156 L141.253479,175.7910156 L141.253479,177.1621094 L139.4761353,177.1621094 L139.4761353,169.3164063 L147.5630493,169.3164063 C142.7218933,168.6647034 139.628479,167.1835938 138.2827759,164.8730469 L137.8257446,164.8730469 C136.8778076,166.8873596 133.805542,168.3684845 128.6089478,169.3164063 L136.7339478,169.3164063 L136.7339478,177.1621094 L134.956604,177.1621094 L134.956604,175.7910156 L129.5991821,175.7910156 L129.5991821,177.1875 L127.8218384,177.1875 L127.8218384,169.46875 C127.3732605,169.5533752 126.9077759,169.6380157 126.425354,169.7226563 C126.1714478,169.2148438 125.8413391,168.6139221 125.4351196,167.9199219 C131.0887451,167.1920471 134.4826355,166.1764221 135.6167603,164.8730469 L126.425354,164.8730469 Z M139.4507446,153.9550781 L148.4390259,153.9550781 L148.4390259,161.4453125 L146.6616821,161.4453125 L146.6616821,160.5566406 L141.2280884,160.5566406 L141.2280884,161.34375 L139.4507446,161.34375 Z M127.7964478,153.9550781 L136.7085571,153.9550781 L136.7085571,161.34375 L134.9312134,161.34375 L134.9312134,160.5566406 L129.5737915,160.5566406 L129.5737915,161.5976563 L127.7964478,161.5976563 Z M146.6616821,155.5292969 L141.2280884,155.5292969 L141.2280884,158.9824219 L146.6616821,158.9824219 Z M134.9312134,155.5292969 L129.5737915,155.5292969 L129.5737915,158.9824219 L134.9312134,158.9824219 Z M146.6870728,170.890625 L141.253479,170.890625 L141.253479,174.2167969 L146.6870728,174.2167969 Z M134.956604,170.890625 L129.5991821,170.890625 L129.5991821,174.2167969 L134.956604,174.2167969 Z M153.7583618,154.0058594 L162.3403931,154.0058594 L162.3403931,161.2929688 C164.0330811,158.703125 165.2941589,155.7832031 166.1235962,152.5332031 L168.1294556,152.9902344 C167.7232056,154.2089844 167.3000183,155.3684845 166.8599243,156.46875 L176.5591431,156.46875 C176.4575806,164.6953125 176.3560181,170.1712189 176.2544556,172.8964844 C176.1021118,175.6386719 174.6971436,177.0097656 172.0396118,177.0097656 C170.5838623,177.0097656 169.0350342,176.9759064 167.3931274,176.9082031 C167.2915649,176.2311096 167.1561279,175.5371094 166.9868774,174.8261719 C168.6287842,175.0123596 170.1353149,175.1139221 171.5064087,175.1308594 C173.2837524,175.1139221 174.2232056,174.2337189 174.3247681,172.4902344 C174.4432373,169.6126251 174.5278931,164.8899689 174.5786743,158.3222656 L166.0982056,158.3222656 C165.4718933,159.7949219 164.8201904,161.140625 164.1431274,162.359375 C163.6522217,162.0377502 163.0513,161.7246094 162.3403931,161.4199219 L162.3403931,169.7480469 L160.5122681,169.7480469 L160.5122681,155.859375 L155.5864868,155.859375 L155.5864868,169.9003906 L153.7583618,169.9003906 Z M169.0942993,164.4667969 L170.8462524,163.9589844 C171.6248779,166.3964844 172.3781433,168.9524689 173.1060181,171.6269531 L171.2017212,172.1855469 C171.0662842,171.6777344 170.9393311,171.1614532 170.8208618,170.6367188 C169.0265808,170.7552032 167.4185181,170.8990784 165.9966431,171.0683594 C165.2518311,171.1529846 164.4985962,171.2884064 163.7368774,171.4746094 L162.9497681,169.8242188 C163.5422058,169.4518127 163.9822998,168.9440002 164.2700806,168.3007813 C165.2010498,166.049469 166.0812683,163.3411407 166.9107056,160.1757813 L168.8403931,160.6328125 C167.8247681,163.7643127 166.8175964,166.6503906 165.8189087,169.2910156 C167.2576904,169.2063751 168.7811279,169.1048126 170.3892212,168.9863281 C169.9829712,167.4967346 169.5513306,165.9902344 169.0942993,164.4667969 Z M157.1353149,158.0683594 L158.9634399,158.0683594 L158.9634399,163.171875 C158.9634399,166.455719 158.7349243,169.0032501 158.2778931,170.8144531 L159.0142212,170.1289063 C160.7407837,171.923172 162.2557373,173.5566406 163.5591431,175.0292969 L161.9595337,176.375 C160.7576904,174.8346252 159.4373779,173.2688751 157.9985962,171.6777344 C157.3891907,173.6074219 155.9250183,175.579422 153.6060181,177.59375 C153.2336121,177.0690002 152.7850342,176.5527344 152.2603149,176.0449219 C154.2407532,174.5722656 155.5526123,172.9980469 156.1958618,171.3222656 C156.8221436,169.8665314 157.1353149,167.3951721 157.1353149,163.9082031 Z M179.9741821,175.8164063 C185.7970886,174.6484375 189.6564636,172.4817657 191.5523071,169.3164063 L179.4663696,169.3164063 L179.4663696,167.4882813 L192.3901978,167.4882813 C192.9318542,166.2018127 193.2111511,162.7317657 193.2280884,157.078125 L195.2593384,157.078125 C195.1916199,162.5455627 194.9377136,166.015625 194.4976196,167.4882813 L204.0698853,167.4882813 L204.0698853,169.3164063 L193.862854,169.3164063 C193.727417,169.6210938 193.5750732,169.9173126 193.4058228,170.2050781 C196.1818542,171.5253906 199.618042,173.4127502 203.7144165,175.8671875 L202.5718384,177.6699219 C198.7632446,175.1985626 195.3693542,173.2011719 192.3901978,171.6777344 C190.1388855,174.4368439 186.448761,176.4596252 181.3198853,177.7460938 C181.0321045,177.2552032 180.5835571,176.611969 179.9741821,175.8164063 Z M180.5073853,156.0117188 L180.5073853,154.1835938 L203.1304321,154.1835938 L203.1304321,155.8085938 C202.2332764,158.0091095 201.3192139,159.8795471 200.3882446,161.4199219 C199.5757141,161.0305939 198.9324951,160.7597656 198.4585571,160.6074219 C199.3218384,159.2363281 200.1089478,157.704422 200.8198853,156.0117188 Z M181.5484009,162.5117188 L182.6148071,161.140625 C184.8322449,162.4270782 186.8381042,163.7135315 188.6323853,165 L187.4390259,166.5742188 C185.4754639,165.1015625 183.5119324,163.7473907 181.5484009,162.5117188 Z M184.0874634,158.4238281 L185.128479,157.0527344 C187.1766357,158.2376251 189.1063232,159.4648438 190.9175415,160.734375 L189.7241821,162.3339844 C187.9806824,160.9967346 186.1017761,159.6933594 184.0874634,158.4238281 Z" style="fill:rgb(23,55,94);stroke:none" clip-path="url(#clip10)" />
<clipPath id="clip11"><path d="M230,136 L567,136 L567,194 L230,194 L230,136 Z" /></clipPath>
<path d="M232,138 L232,191 L564,191 L564,138 Z" style="fill:rgb(220,230,242);stroke:none" clip-path="url(#clip11)" />
<clipPath id="clip12"><path d="M230,136 L567,136 L567,194 L230,194 L230,136 Z" /></clipPath>
<path d="M232,138 L232,191 L564,191 L564,138 Z" style="fill:none;stroke:rgb(85,142,213);stroke-width:2" clip-path="url(#clip12)" />
<clipPath id="clip13"><path d="M244,145 L553,145 L553,185 L244,185 L244,145 Z" /></clipPath>
<path d="M246.5005188,170.4335938 C247.1014099,170.9583282 247.9054565,171.3899689 248.9126282,171.7285156 C249.9197693,172.0670471 250.8761597,172.2363281 251.7817688,172.2363281 C254.540863,172.2363281 255.9204102,171.2545471 255.9204407,169.2910156 C255.9204102,168.7408752 255.7723083,168.2457581 255.4761047,167.8056641 C255.1798706,167.3655548 254.7736206,166.9762268 254.2573547,166.6376953 C253.7410583,166.2991486 252.7720032,165.7786407 251.3501282,165.0761719 C249.3781128,164.0943909 248.078949,163.1824493 247.4526672,162.340332 C246.826355,161.4981995 246.5132141,160.5354767 246.5132141,159.4521484 C246.5132141,157.8186798 247.1691284,156.5237579 248.4809875,155.5673828 C249.7928162,154.6109924 251.4474487,154.1328125 253.4448547,154.1328125 C255.3999023,154.1328125 256.8344727,154.3697815 257.7485657,154.84375 L257.7485657,157.6113281 C256.5636597,156.7903595 255.0656128,156.3798828 253.254425,156.3798828 C252.0525818,156.3798828 251.072937,156.6316681 250.3154602,157.1352539 C249.5579529,157.6388245 249.1792297,158.3391876 249.1792297,159.2363281 C249.1792297,160.0318909 249.4415894,160.6793518 249.9663391,161.1787109 C250.4910583,161.6780548 251.629425,162.359375 253.3813782,163.2226563 C255.3110657,164.1451721 256.6609802,165.0677032 257.4311829,165.9902344 C258.201355,166.9127502 258.5864563,167.9495392 258.5864563,169.1005859 C258.5864563,170.8271484 257.960144,172.1516876 256.70755,173.0742188 C255.4549255,173.9967346 253.7156677,174.4580078 251.4897766,174.4580078 C250.7111206,174.4580078 249.8034058,174.3500977 248.7666321,174.1342773 C247.7298279,173.918457 246.9744568,173.6497345 246.5005188,173.328125 Z M274.4048157,174.1279297 L271.9292297,174.1279297 L271.9292297,166.0537109 C271.9292297,163.2268829 270.8797302,161.8134766 268.7807922,161.8134766 C267.7059021,161.8134766 266.8130188,162.2260742 266.1020813,163.0512695 C265.3911438,163.8764648 265.035675,164.9153595 265.035675,166.1679688 L265.035675,174.1279297 L262.5473938,174.1279297 L262.5473938,153.3457031 L265.035675,153.3457031 L265.035675,162.3974609 L265.0864563,162.3974609 C266.1613159,160.6370392 267.6889954,159.7568359 269.6694641,159.7568359 C272.826355,159.7568359 274.4048157,161.6653595 274.4048157,165.4824219 Z M279.3686829,161.0644531 C280.7651672,160.1927032 282.3774719,159.7568359 284.2055969,159.7568359 C287.5910034,159.7568359 289.2837219,161.5341797 289.2837219,165.0888672 L289.2837219,174.1279297 L286.8208313,174.1279297 L286.8208313,171.9570313 L286.7573547,171.9570313 C285.7840576,173.6243439 284.3494873,174.4580078 282.4536438,174.4580078 C281.0910034,174.4580078 280.0076599,174.0898438 279.2036438,173.3535156 C278.3995972,172.6171875 277.9975891,171.6227112 277.9975891,170.3701172 C277.9975891,167.7464142 279.5506287,166.21875 282.6567688,165.7871094 L286.8208313,165.203125 C286.8208313,162.9095001 285.8729248,161.7626953 283.9770813,161.7626953 C282.2928467,161.7626953 280.7566833,162.3297424 279.3686829,163.4638672 Z M283.5327454,167.5263672 C282.3817139,167.6787109 281.5882568,167.9664612 281.1523743,168.3896484 C280.7164917,168.8128204 280.4985657,169.4052734 280.4985657,170.1669922 C280.4985657,170.8356018 280.7355347,171.3815002 281.2095032,171.8046875 C281.6834717,172.2278595 282.3097534,172.4394531 283.0884094,172.4394531 C284.1717529,172.4394531 285.0646362,172.0585938 285.7671204,171.296875 C286.4696045,170.5351563 286.8208313,169.5787659 286.8208313,168.4277344 L286.8208313,167.0820313 Z M306.0288391,174.1279297 L303.5405579,174.1279297 L303.5405579,171.7919922 L303.4897766,171.7919922 C302.4656982,173.5693359 300.8745422,174.4580078 298.7163391,174.4580078 C296.9389954,174.4580078 295.5255737,173.8253479 294.4761047,172.5600586 C293.4266357,171.294754 292.901886,169.5872345 292.901886,167.4375 C292.901886,165.1184845 293.4943237,163.2586212 294.6792297,161.8579102 C295.8641357,160.4571838 297.4129639,159.7568359 299.3257141,159.7568359 C301.2384644,159.7568359 302.6264954,160.5016174 303.4897766,161.9912109 L303.5405579,161.9912109 L303.5405579,153.3457031 L306.0288391,153.3457031 Z M303.5532532,165.7744141 C303.5532532,164.6487579 303.1829834,163.7071838 302.4424133,162.949707 C301.7018433,162.192215 300.789917,161.8134766 299.7065735,161.8134766 C298.386261,161.8134766 297.3452454,162.3064728 296.5835266,163.2924805 C295.8218079,164.2784729 295.4409485,165.6220703 295.4409485,167.3232422 C295.4409485,168.8889923 295.8070068,170.1267853 296.539093,171.0366211 C297.2711792,171.9464417 298.2466125,172.4013672 299.4653625,172.4013672 C300.6671753,172.4013672 301.6489563,171.9549103 302.410675,171.0620117 C303.1723938,170.1690979 303.5532532,169.0582581 303.5532532,167.7294922 Z M310.0278625,167.2597656 C310.0278625,164.9407501 310.6753235,163.1105042 311.9702454,161.769043 C313.2651672,160.4275665 315.0213623,159.7568359 317.2388,159.7568359 C319.3461914,159.7568359 320.9987183,160.4021759 322.1963196,161.6928711 C323.3939209,162.983551 323.9927063,164.7672424 323.9927063,167.0439453 C323.9927063,169.2613831 323.3536987,171.0514221 322.0757141,172.4140625 C320.7977295,173.7766876 319.0838623,174.4580078 316.9341125,174.4580078 C314.835144,174.4580078 313.1593628,173.7978516 311.9067688,172.4775391 C310.6541748,171.1572266 310.0278625,169.4179688 310.0278625,167.2597656 Z M312.566925,167.1835938 C312.566925,168.8001251 312.9752808,170.0738831 313.7920227,171.0048828 C314.6087646,171.9358673 315.7069092,172.4013672 317.0864563,172.4013672 C318.5083008,172.4013672 319.5916748,171.9464417 320.3364563,171.0366211 C321.0812378,170.1267853 321.4536438,168.8212891 321.4536438,167.1201172 C321.4536438,165.4104767 321.0812378,164.0986328 320.3364563,163.1845703 C319.5916748,162.2705078 318.5083008,161.8134766 317.0864563,161.8134766 C315.6899719,161.8134766 314.5875854,162.2916565 313.7793274,163.2480469 C312.9710693,164.204422 312.566925,165.5162659 312.566925,167.1835938 Z M345.9809875,160.0869141 L341.7915344,174.1279297 L339.2016907,174.1279297 L336.4087219,164.2763672 C336.2902222,163.8531799 336.2140503,163.4046173 336.1802063,162.9306641 L336.129425,162.9306641 C336.1040039,163.2861328 336.0067139,163.7262268 335.8374329,164.2509766 L332.8159485,174.1279297 L330.3022766,174.1279297 L326.0874329,160.0869141 L328.6772766,160.0869141 L331.4829407,170.4970703 C331.5675659,170.8102112 331.6310425,171.2376251 331.6733704,171.7792969 L331.7749329,171.7792969 C331.8087769,171.313797 331.8891602,170.8736877 332.0161438,170.4589844 L335.0376282,160.0869141 L337.3354797,160.0869141 L340.2807922,170.5097656 C340.3654175,170.8144531 340.433136,171.2460938 340.4839172,171.8046875 L340.598175,171.8046875 C340.6151123,171.4322815 340.6912842,171.0006409 340.8266907,170.5097656 L343.5688782,160.0869141 Z M348.355011,171.09375 C349.607605,171.9993439 350.95755,172.4521484 352.4048157,172.4521484 C354.3429565,172.4521484 355.3120422,171.8173828 355.3120422,170.5478516 C355.3120422,170.0061798 355.1004639,169.5597229 354.6772766,169.2084961 C354.2540894,168.857254 353.3950195,168.4404297 352.1001282,167.9580078 C350.5428467,167.3316956 349.5314331,166.7117462 349.0659485,166.0981445 C348.6004639,165.4845276 348.3676758,164.7418518 348.3677063,163.8701172 C348.3676758,162.6259766 348.8945618,161.6293945 349.9482727,160.8803711 C351.0019836,160.1313477 352.2990112,159.7568359 353.839386,159.7568359 C355.0327454,159.7568359 356.1414795,159.9641876 357.1655579,160.3789063 L357.1655579,162.7783203 C356.1160889,162.1012268 354.9269409,161.7626953 353.598175,161.7626953 C352.8026123,161.7626953 352.1551514,161.9361877 351.6557922,162.2832031 C351.1564331,162.6302032 350.9067688,163.0872345 350.9067688,163.6542969 C350.9067688,164.2128906 351.0866089,164.6487579 351.4463196,164.9619141 C351.8060303,165.2750549 352.6036987,165.6770782 353.839386,166.1679688 C355.4051514,166.7519531 356.4630737,167.3570862 357.0132141,167.9833984 C357.5633545,168.6096954 357.8384094,169.3841095 357.8384094,170.3066406 C357.8384094,171.5930939 357.311554,172.6065979 356.257843,173.347168 C355.2041321,174.0877228 353.839386,174.4580078 352.1636047,174.4580078 C350.7078857,174.4580078 349.4383545,174.1829376 348.355011,173.6328125 Z M360.5932922,167.2597656 C360.5932922,164.9407501 361.2407532,163.1105042 362.535675,161.769043 C363.8305969,160.4275665 365.586792,159.7568359 367.8042297,159.7568359 C369.9116211,159.7568359 371.5641479,160.4021759 372.7617493,161.6928711 C373.9593506,162.983551 374.558136,164.7672424 374.558136,167.0439453 C374.558136,169.2613831 373.9191284,171.0514221 372.6411438,172.4140625 C371.3631592,173.7766876 369.649292,174.4580078 367.4995422,174.4580078 C365.4005737,174.4580078 363.7247925,173.7978516 362.4721985,172.4775391 C361.2196045,171.1572266 360.5932922,169.4179688 360.5932922,167.2597656 Z M363.1323547,167.1835938 C363.1323547,168.8001251 363.5407104,170.0738831 364.3574524,171.0048828 C365.1741943,171.9358673 366.2723389,172.4013672 367.651886,172.4013672 C369.0737305,172.4013672 370.1571045,171.9464417 370.901886,171.0366211 C371.6466675,170.1267853 372.0190735,168.8212891 372.0190735,167.1201172 C372.0190735,165.4104767 371.6466675,164.0986328 370.901886,163.1845703 C370.1571045,162.2705078 369.0737305,161.8134766 367.651886,161.8134766 C366.2554016,161.8134766 365.1530151,162.2916565 364.3447571,163.2480469 C363.536499,164.204422 363.1323547,165.5162659 363.1323547,167.1835938 Z M388.2563782,173.4931641 C387.1815186,174.1363831 385.8865967,174.4580078 384.3716125,174.4580078 C382.340332,174.4580078 380.7069092,173.8063049 379.4712219,172.5029297 C378.2355347,171.1995392 377.6177063,169.5110626 377.6177063,167.4375 C377.6177063,165.1354065 378.2842102,163.2797852 379.617218,161.8706055 C380.9502258,160.4614258 382.7339172,159.7568359 384.9682922,159.7568359 C386.2547607,159.7568359 387.355011,159.9853516 388.2690735,160.4423828 L388.2690735,162.9052734 C387.2788391,162.1773987 386.1785889,161.8134766 384.9682922,161.8134766 C383.5464172,161.8134766 382.3890381,162.3064728 381.4961243,163.2924805 C380.6032104,164.2784729 380.1567688,165.5924377 380.1567688,167.234375 C380.1567688,168.8509064 380.5778198,170.1162109 381.4199524,171.0302734 C382.262085,171.9443359 383.3983154,172.4013672 384.8286438,172.4013672 C386.0389404,172.4013672 387.1815186,172.0035706 388.2563782,171.2080078 Z M403.9223938,174.1279297 L400.5327454,174.1279297 L394.5278625,167.3613281 L394.4770813,167.3613281 L394.4770813,174.1279297 L391.9888,174.1279297 L391.9888,153.3457031 L394.4770813,153.3457031 L394.4770813,166.5234375 L394.5278625,166.5234375 L400.2280579,160.0869141 L403.4272766,160.0869141 L397.0796204,166.8408203 Z M405.7759094,171.09375 C407.0285034,171.9993439 408.3784485,172.4521484 409.8257141,172.4521484 C411.763855,172.4521484 412.7329407,171.8173828 412.7329407,170.5478516 C412.7329407,170.0061798 412.5213623,169.5597229 412.098175,169.2084961 C411.6749878,168.857254 410.8159485,168.4404297 409.5210266,167.9580078 C407.9637451,167.3316956 406.9523315,166.7117462 406.4868469,166.0981445 C406.0213623,165.4845276 405.7885742,164.7418518 405.7886047,163.8701172 C405.7885742,162.6259766 406.3154602,161.6293945 407.3691711,160.8803711 C408.4228821,160.1313477 409.7199097,159.7568359 411.2602844,159.7568359 C412.4536438,159.7568359 413.5623779,159.9641876 414.5864563,160.3789063 L414.5864563,162.7783203 C413.5369873,162.1012268 412.3478394,161.7626953 411.0190735,161.7626953 C410.2235107,161.7626953 409.5760498,161.9361877 409.0766907,162.2832031 C408.5773315,162.6302032 408.3276672,163.0872345 408.3276672,163.6542969 C408.3276672,164.2128906 408.5075073,164.6487579 408.867218,164.9619141 C409.2269287,165.2750549 410.0245972,165.6770782 411.2602844,166.1679688 C412.8260498,166.7519531 413.8839722,167.3570862 414.4341125,167.9833984 C414.9842529,168.6096954 415.2593079,169.3841095 415.2593079,170.3066406 C415.2593079,171.5930939 414.7324524,172.6065979 413.6787415,173.347168 C412.6250305,174.0877228 411.2602844,174.4580078 409.5845032,174.4580078 C408.1287842,174.4580078 406.8592529,174.1829376 405.7759094,173.6328125 Z M428.183136,154.0566406 L440.7261047,154.0566406 C440.6414795,155.4277344 440.573761,156.5110626 440.5229797,157.3066406 C440.3875732,159.9303284 439.0503235,161.2167969 436.511261,161.1660156 C435.8172607,161.1490784 434.7254639,161.1152344 433.2358704,161.0644531 C433.1343079,160.4042969 433.024292,159.735672 432.9057922,159.0585938 C434.1583862,159.2109375 435.2840576,159.3040314 436.2827454,159.3378906 C437.7384644,159.3886719 438.5255737,158.6946564 438.6440735,157.2558594 C438.6948547,156.8157501 438.7371826,156.3333282 438.7710266,155.8085938 L430.1128235,155.8085938 L430.1128235,163.1210938 L440.8276672,163.1210938 L440.8276672,164.6191406 C440.1505737,167.5898438 438.910675,170.1754456 437.1079407,172.3759766 C438.5721436,173.7639923 440.3875732,174.8430939 442.5542297,175.6132813 C441.9786987,176.2903595 441.4878235,176.8997345 441.0815735,177.4414063 C438.9995422,176.4680939 437.2348938,175.2578125 435.7876282,173.8105469 C434.4927063,175.0885315 432.9735107,176.2141876 431.230011,177.1875 C430.9083862,176.6289063 430.5614014,176.0703125 430.1889954,175.5117188 C431.8817139,174.6484375 433.3416748,173.6158752 434.5688782,172.4140625 C432.9184875,170.298172 431.8309326,167.7506409 431.3061829,164.7714844 L430.1128235,164.7714844 L430.1128235,177.390625 L428.183136,177.390625 Z M418.9155579,153.9550781 L426.0757141,153.9550781 L426.0757141,174.546875 C426.0757141,176.2395782 425.2886047,177.0859375 423.714386,177.0859375 C422.8511047,177.0859375 422.0470581,177.0605469 421.3022766,177.0097656 C421.2345581,176.5019531 421.1329956,175.9010315 420.9975891,175.2070313 C421.8608704,175.3424377 422.6056519,175.4101563 423.2319641,175.4101563 C423.9259644,175.4101563 424.2729797,175.0631409 424.2729797,174.3691406 L424.2729797,168.5292969 L420.7182922,168.5292969 C420.7690735,172.4225159 420.0665894,175.393219 418.6108704,177.4414063 C418.2384644,176.9505157 417.7729797,176.4765625 417.214386,176.0195313 C418.3485107,174.2760315 418.9155579,171.8046875 418.9155579,168.6054688 Z M438.8218079,164.7714844 L433.0454407,164.7714844 C433.5701904,167.2089844 434.5054016,169.282547 435.8511047,170.9921875 C437.2475891,169.2232971 438.2378235,167.1497345 438.8218079,164.7714844 Z M420.7182922,166.9550781 L424.2729797,166.9550781 L424.2729797,162.0546875 L420.7182922,162.0546875 Z M424.2729797,155.6054688 L420.7182922,155.6054688 L420.7182922,160.4804688 L424.2729797,160.4804688 Z M451.2251282,152.2285156 L453.129425,153.0410156 C452.7485657,153.6673126 452.350769,154.2766876 451.9360657,154.8691406 L465.6723938,154.8691406 L465.6723938,156.5703125 C464.098175,158.4830627 461.9442139,160.1546173 459.2104797,161.5849609 C462.0542297,162.6175079 465.4438782,163.2565002 469.379425,163.5019531 C468.8377686,164.2636719 468.3638,164.9746094 467.95755,165.6347656 C463.5480347,165.0507813 459.8494873,164.0647736 456.8618469,162.6767578 C453.5018311,164.1070862 449.4393311,165.236969 444.6743469,166.0664063 C444.3865967,165.5416565 444.0395813,164.9492188 443.6333313,164.2890625 C447.8735657,163.6373596 451.5552063,162.7148438 454.6782532,161.5214844 C452.7485657,160.345047 451.2039795,158.9527893 450.0444641,157.3447266 C448.732605,158.9020081 447.2811279,160.345047 445.6899719,161.6738281 C445.1821594,161.1321564 444.7166748,160.6751251 444.2934875,160.3027344 C447.4080811,157.8313751 449.7186279,155.1399689 451.2251282,152.2285156 Z M445.8930969,167.1074219 L453.2817688,167.1074219 C453.4002686,166.2864532 453.5018311,165.3723907 453.5864563,164.3652344 L455.6430969,164.3652344 C455.5330811,165.3723907 455.4188232,166.2864532 455.3003235,167.1074219 L465.5454407,167.1074219 C465.3761597,170.1373596 465.2153625,172.2617188 465.0630188,173.4804688 C464.7921753,175.8671875 463.3703003,177.0690002 460.7973938,177.0859375 C459.7987061,177.1028595 458.3006592,177.0690002 456.3032532,176.984375 C456.2016907,176.3580627 456.0747375,175.6555939 455.9223938,174.8769531 C457.8690186,175.0462189 459.4770813,175.1393127 460.7466125,175.15625 C462.1854248,175.1223907 462.9809875,174.3945313 463.1333313,172.9726563 C463.285675,171.703125 463.3956909,170.3489532 463.4634094,168.9101563 L454.995636,168.9101563 C454.0985107,172.9811096 450.9458313,175.9348907 445.5376282,177.7714844 C445.1483154,177.2128906 444.7335815,176.6458282 444.2934875,176.0703125 C449.1515503,174.4960938 452.0291748,172.109375 452.9263,168.9101563 L445.8930969,168.9101563 Z M462.9555969,156.5449219 L451.6186829,156.5449219 C452.9813232,158.1783752 454.7332764,159.5240784 456.8745422,160.5820313 C459.3204956,159.4394531 461.3475342,158.09375 462.9555969,156.5449219 Z M471.4995422,163.1972656 L481.7573547,163.1972656 C482.0197144,162.5625 482.1889954,161.8261719 482.2651672,160.9882813 L484.0932922,161.2421875 C483.9917297,161.953125 483.8436279,162.6048126 483.6489563,163.1972656 L489.1841125,163.1972656 C488.507019,162.7063751 487.7918701,162.2239532 487.0386047,161.75 L488.0796204,160.6074219 C489.1968079,161.2675781 490.2039795,161.9277344 491.1011047,162.5878906 L490.5298157,163.1972656 L495.2651672,163.1972656 L495.2651672,164.8730469 L485.464386,164.8730469 C487.4194641,166.7857971 490.8895264,167.6914063 495.8745422,167.5898438 C495.4682922,168.283844 495.1212769,168.9355469 494.8335266,169.5449219 C494.3849487,169.5110626 493.9533081,169.4729767 493.5386047,169.4306641 L493.5386047,177.1875 L491.761261,177.1875 L491.761261,175.7910156 L486.3276672,175.7910156 L486.3276672,177.1621094 L484.5503235,177.1621094 L484.5503235,169.3164063 L492.6372375,169.3164063 C487.7960815,168.6647034 484.7026672,167.1835938 483.3569641,164.8730469 L482.8999329,164.8730469 C481.9520264,166.8873596 478.8797607,168.3684845 473.683136,169.3164063 L481.808136,169.3164063 L481.808136,177.1621094 L480.0307922,177.1621094 L480.0307922,175.7910156 L474.6733704,175.7910156 L474.6733704,177.1875 L472.8960266,177.1875 L472.8960266,169.46875 C472.4474487,169.5533752 471.9819641,169.6380157 471.4995422,169.7226563 C471.245636,169.2148438 470.9155579,168.6139221 470.5093079,167.9199219 C476.1629639,167.1920471 479.5568237,166.1764221 480.6909485,164.8730469 L471.4995422,164.8730469 Z M484.5249329,153.9550781 L493.5132141,153.9550781 L493.5132141,161.4453125 L491.7358704,161.4453125 L491.7358704,160.5566406 L486.3022766,160.5566406 L486.3022766,161.34375 L484.5249329,161.34375 Z M472.870636,153.9550781 L481.7827454,153.9550781 L481.7827454,161.34375 L480.0054016,161.34375 L480.0054016,160.5566406 L474.6479797,160.5566406 L474.6479797,161.5976563 L472.870636,161.5976563 Z M491.7358704,155.5292969 L486.3022766,155.5292969 L486.3022766,158.9824219 L491.7358704,158.9824219 Z M480.0054016,155.5292969 L474.6479797,155.5292969 L474.6479797,158.9824219 L480.0054016,158.9824219 Z M491.761261,170.890625 L486.3276672,170.890625 L486.3276672,174.2167969 L491.761261,174.2167969 Z M480.0307922,170.890625 L474.6733704,170.890625 L474.6733704,174.2167969 L480.0307922,174.2167969 Z M506.95755,168.7070313 L520.0845337,168.7070313 L520.0845337,177.6953125 L518.1294556,177.6953125 L518.1294556,176.3242188 L508.9126282,176.3242188 L508.9126282,177.6953125 L506.95755,177.6953125 Z M515.1333618,158.8046875 L514.7778931,159.2617188 C516.6060181,161.953125 519.2635498,164.0605469 522.7505493,165.5839844 C522.2088623,166.2779846 521.7687378,166.8958282 521.4302368,167.4375 C520.1437378,166.7265625 518.9927368,165.9817657 517.9771118,165.203125 L517.9771118,166.5488281 L508.785675,166.5488281 L508.785675,165.40625 C507.77005,166.21875 506.6867371,167.0058594 505.535675,167.7675781 C505.2479248,167.3782501 504.8078003,166.8535156 504.2153625,166.1933594 C507.8885498,163.9759064 510.7238464,161.5130157 512.7212524,158.8046875 Z M497.5122375,165.7363281 C498.5617065,165.2962189 499.5942688,164.8391876 500.6098938,164.3652344 L500.6098938,159.3378906 L497.5630188,159.3378906 L497.5630188,157.5605469 L500.6098938,157.5605469 L500.6098938,152.6347656 L502.4634094,152.6347656 L502.4634094,157.5605469 L505.3579407,157.5605469 L505.3579407,159.3378906 L502.4634094,159.3378906 L502.4634094,163.4765625 C503.4113159,163.002594 504.3423157,162.5117188 505.2563782,162.0039063 C505.3071594,162.8502502 505.3748779,163.5273438 505.4595032,164.0351563 C504.8839722,164.3229065 503.8852844,164.830719 502.4634094,165.5585938 L502.4634094,174.5976563 C502.4634094,176.3580627 501.7440186,177.2721252 500.3052063,177.3398438 C499.6112061,177.390625 498.8410034,177.407547 497.9946594,177.390625 C497.9269409,176.7135315 497.8253784,176.0110626 497.6899719,175.2832031 C498.5194092,175.3509064 499.1710815,175.3847656 499.64505,175.3847656 C500.288269,175.4016876 500.6098938,175.0377502 500.6098938,174.2929688 L500.6098938,166.4980469 C499.7635498,166.9381409 498.8156128,167.4290314 497.7661438,167.9707031 Z M505.6372375,155.5039063 L509.0649719,155.5039063 L509.0649719,152.7617188 L510.9438782,152.7617188 L510.9438782,155.5039063 L516.2251587,155.5039063 L516.2251587,152.7617188 L518.1040649,152.7617188 L518.1040649,155.5039063 L522.1411743,155.5039063 L522.1411743,157.28125 L518.1040649,157.28125 L518.1040649,159.8203125 L516.2251587,159.8203125 L516.2251587,157.28125 L510.9438782,157.28125 L510.9438782,159.8203125 L509.0649719,159.8203125 L509.0649719,157.28125 L505.6372375,157.28125 Z M518.1294556,170.4335938 L508.9126282,170.4335938 L508.9126282,174.5976563 L518.1294556,174.5976563 Z M513.6353149,160.6835938 C512.4673462,162.1054688 511.0793152,163.4934845 509.4712219,164.8476563 L517.5200806,164.8476563 C515.8781128,163.5442657 514.5831909,162.15625 513.6353149,160.6835938 Z M532.2593384,170.0273438 L538.7593384,170.0273438 L538.7593384,167.8183594 L533.1226196,167.8183594 L533.1226196,166.2949219 L538.7593384,166.2949219 L538.7593384,164.0859375 L533.4780884,164.0859375 L533.4780884,162.5625 L538.7593384,162.5625 L538.7593384,160.3535156 L532.1577759,160.3535156 L532.1577759,158.7792969 L538.7593384,158.7792969 L538.7593384,156.5703125 L533.4780884,156.5703125 L533.4780884,155.046875 L538.7593384,155.046875 L538.7593384,152.5585938 L540.6382446,152.5585938 L540.6382446,155.046875 L546.5288696,155.046875 L546.5288696,158.7792969 L549.1948853,158.7792969 L549.1948853,160.3535156 L546.5288696,160.3535156 L546.5288696,164.7714844 L544.7007446,164.7714844 L544.7007446,164.0859375 L540.6382446,164.0859375 L540.6382446,166.2949219 L547.0366821,166.2949219 L547.0366821,167.8183594 L540.6382446,167.8183594 L540.6382446,170.0273438 L548.2046509,170.0273438 L548.2046509,171.5507813 L540.6382446,171.5507813 L540.6382446,174.1660156 L538.7593384,174.1660156 L538.7593384,171.5507813 L532.2593384,171.5507813 Z M526.2671509,165.7363281 C526.7749634,167.8014221 527.4859009,169.4983673 528.3999634,170.8271484 C529.305542,168.9651642 529.8726196,166.8196564 530.1011353,164.390625 L525.0230103,164.390625 L525.0230103,162.5371094 L529.6948853,156.7734375 L524.5151978,156.7734375 L524.5151978,155.046875 L532.0308228,155.046875 L532.0308228,156.7734375 L527.2573853,162.6640625 L532.0054321,162.6640625 L532.0054321,164.1621094 C531.6922607,167.3020782 530.9263306,170.0231018 529.7075806,172.3251953 C531.5526123,173.9248047 534.4175415,174.7330627 538.3023071,174.75 C541.5184326,174.8177032 545.2508545,174.7753906 549.4995728,174.6230469 C549.211792,175.3170471 548.9324951,175.985672 548.6616821,176.6289063 C544.7853394,176.611969 541.0360107,176.595047 537.4136353,176.578125 C533.638855,176.578125 530.7443237,175.6979065 528.7300415,173.9375 C527.7736206,175.3255157 526.6141357,176.5357971 525.2515259,177.5683594 C524.9806519,177.0774689 524.633667,176.5273438 524.2105103,175.9179688 C525.4800415,174.953125 526.5464478,173.8274689 527.409729,172.5410156 C526.2755737,171.1022034 525.3361206,169.0455627 524.5913696,166.3710938 Z M540.6382446,162.5625 L544.7007446,162.5625 L544.7007446,160.3535156 L540.6382446,160.3535156 Z M544.7007446,156.5703125 L540.6382446,156.5703125 L540.6382446,158.7792969 L544.7007446,158.7792969 Z" style="fill:rgb(23,55,94);stroke:none" clip-path="url(#clip13)" />
<clipPath id="clip14"><path d="M575,136 L1070,136 L1070,194 L575,194 L575,136 Z" /></clipPath>
<path d="M577,138 L577,191 L1067,191 L1067,138 Z" style="fill:rgb(220,230,242);stroke:none" clip-path="url(#clip14)" />
<clipPath id="clip15"><path d="M575,136 L1070,136 L1070,194 L575,194 L575,136 Z" /></clipPath>
<path d="M577,138 L577,191 L1067,191 L1067,138 Z" style="fill:none;stroke:rgb(85,142,213);stroke-width:2" clip-path="url(#clip15)" />
<clipPath id="clip16"><path d="M589,145 L1056,145 L1056,185 L589,185 L589,145 Z" /></clipPath>
<path d="M591.9672852,170.4335938 C592.5682373,170.9583282 593.3722534,171.3899689 594.3793945,171.7285156 C595.3865967,172.0670471 596.3429565,172.2363281 597.2485352,172.2363281 C600.0076904,172.2363281 601.387207,171.2545471 601.387207,169.2910156 C601.387207,168.7408752 601.2391357,168.2457581 600.9428711,167.8056641 C600.6466675,167.3655548 600.2404175,166.9762268 599.7241211,166.6376953 C599.2078857,166.2991486 598.2387695,165.7786407 596.8168945,165.0761719 C594.8449097,164.0943909 593.5457764,163.1824493 592.9194336,162.340332 C592.2931519,161.4981995 591.9799805,160.5354767 591.9799805,159.4521484 C591.9799805,157.8186798 592.6359253,156.5237579 593.9477539,155.5673828 C595.2596436,154.6109924 596.9142456,154.1328125 598.9116211,154.1328125 C600.8666992,154.1328125 602.3012695,154.3697815 603.215332,154.84375 L603.215332,157.6113281 C602.0304565,156.7903595 600.5324097,156.3798828 598.7211914,156.3798828 C597.5194092,156.3798828 596.5397339,156.6316681 595.7822266,157.1352539 C595.0247803,157.6388245 594.6459961,158.3391876 594.6459961,159.2363281 C594.6459961,160.0318909 594.9083862,160.6793518 595.4331055,161.1787109 C595.9578857,161.6780548 597.0961914,162.359375 598.8481445,163.2226563 C600.777832,164.1451721 602.1278076,165.0677032 602.8979492,165.9902344 C603.6681519,166.9127502 604.0532227,167.9495392 604.0532227,169.1005859 C604.0532227,170.8271484 603.4269409,172.1516876 602.1743164,173.0742188 C600.9217529,173.9967346 599.1824951,174.4580078 596.956543,174.4580078 C596.1779175,174.4580078 595.2702026,174.3500977 594.2333984,174.1342773 C593.1966553,173.918457 592.4412842,173.6497345 591.9672852,173.328125 Z M619.871582,174.1279297 L617.3959961,174.1279297 L617.3959961,166.0537109 C617.3959961,163.2268829 616.3465576,161.8134766 614.2475586,161.8134766 C613.1727295,161.8134766 612.2797852,162.2260742 611.5688477,163.0512695 C610.8579102,163.8764648 610.5024414,164.9153595 610.5024414,166.1679688 L610.5024414,174.1279297 L608.0141602,174.1279297 L608.0141602,153.3457031 L610.5024414,153.3457031 L610.5024414,162.3974609 L610.5532227,162.3974609 C611.6281128,160.6370392 613.1557617,159.7568359 615.1362305,159.7568359 C618.2931519,159.7568359 619.871582,161.6653595 619.871582,165.4824219 Z M624.8354492,161.0644531 C626.2319336,160.1927032 627.8442383,159.7568359 629.6723633,159.7568359 C633.0578003,159.7568359 634.7504883,161.5341797 634.7504883,165.0888672 L634.7504883,174.1279297 L632.2875977,174.1279297 L632.2875977,171.9570313 L632.2241211,171.9570313 C631.2508545,173.6243439 629.8162842,174.4580078 627.9204102,174.4580078 C626.5578003,174.4580078 625.4744873,174.0898438 624.6704102,173.3535156 C623.866394,172.6171875 623.4643555,171.6227112 623.4643555,170.3701172 C623.4643555,167.7464142 625.0174561,166.21875 628.1235352,165.7871094 L632.2875977,165.203125 C632.2875977,162.9095001 631.3397217,161.7626953 629.4438477,161.7626953 C627.7596436,161.7626953 626.2235107,162.3297424 624.8354492,163.4638672 Z M628.9995117,167.5263672 C627.8485107,167.6787109 627.0550537,167.9664612 626.6191406,168.3896484 C626.1832886,168.8128204 625.965332,169.4052734 625.965332,170.1669922 C625.965332,170.8356018 626.2023315,171.3815002 626.6762695,171.8046875 C627.1502686,172.2278595 627.7765503,172.4394531 628.5551758,172.4394531 C629.6385498,172.4394531 630.5314331,172.0585938 631.2338867,171.296875 C631.9364014,170.5351563 632.2875977,169.5787659 632.2875977,168.4277344 L632.2875977,167.0820313 Z M651.4956055,174.1279297 L649.0073242,174.1279297 L649.0073242,171.7919922 L648.956543,171.7919922 C647.9324951,173.5693359 646.3413086,174.4580078 644.1831055,174.4580078 C642.4057617,174.4580078 640.9923706,173.8253479 639.9428711,172.5600586 C638.8934326,171.294754 638.3686523,169.5872345 638.3686523,167.4375 C638.3686523,165.1184845 638.9611206,163.2586212 640.1459961,161.8579102 C641.3309326,160.4571838 642.8797607,159.7568359 644.7924805,159.7568359 C646.7052612,159.7568359 648.0932617,160.5016174 648.956543,161.9912109 L649.0073242,161.9912109 L649.0073242,153.3457031 L651.4956055,153.3457031 Z M649.0200195,165.7744141 C649.0200195,164.6487579 648.6497803,163.7071838 647.9091797,162.949707 C647.1686401,162.192215 646.2567139,161.8134766 645.1733398,161.8134766 C643.8530273,161.8134766 642.8120117,162.3064728 642.050293,163.2924805 C641.2885742,164.2784729 640.9077148,165.6220703 640.9077148,167.3232422 C640.9077148,168.8889923 641.2738037,170.1267853 642.0058594,171.0366211 C642.7379761,171.9464417 643.7133789,172.4013672 644.9321289,172.4013672 C646.1339722,172.4013672 647.1157227,171.9549103 647.8774414,171.0620117 C648.6391602,170.1690979 649.0200195,169.0582581 649.0200195,167.7294922 Z M655.4946289,167.2597656 C655.4946289,164.9407501 656.1420898,163.1105042 657.4370117,161.769043 C658.7319336,160.4275665 660.4881592,159.7568359 662.7055664,159.7568359 C664.8129883,159.7568359 666.4655151,160.4021759 667.6630859,161.6928711 C668.8607178,162.983551 669.4594727,164.7672424 669.4594727,167.0439453 C669.4594727,169.2613831 668.8204956,171.0514221 667.5424805,172.4140625 C666.2645264,173.7766876 664.5506592,174.4580078 662.4008789,174.4580078 C660.3019409,174.4580078 658.6261597,173.7978516 657.3735352,172.4775391 C656.1209717,171.1572266 655.4946289,169.4179688 655.4946289,167.2597656 Z M658.0336914,167.1835938 C658.0336914,168.8001251 658.4420776,170.0738831 659.2587891,171.0048828 C660.0755615,171.9358673 661.1737061,172.4013672 662.5532227,172.4013672 C663.9750977,172.4013672 665.0584717,171.9464417 665.8032227,171.0366211 C666.5480347,170.1267853 666.9204102,168.8212891 666.9204102,167.1201172 C666.9204102,165.4104767 666.5480347,164.0986328 665.8032227,163.1845703 C665.0584717,162.2705078 663.9750977,161.8134766 662.5532227,161.8134766 C661.1567383,161.8134766 660.0543823,162.2916565 659.2460938,163.2480469 C658.4378662,164.204422 658.0336914,165.5162659 658.0336914,167.1835938 Z M691.4477539,160.0869141 L687.2583008,174.1279297 L684.668457,174.1279297 L681.8754883,164.2763672 C681.757019,163.8531799 681.6808472,163.4046173 681.6469727,162.9306641 L681.5961914,162.9306641 C681.5708008,163.2861328 681.4735107,163.7262268 681.3041992,164.2509766 L678.2827148,174.1279297 L675.769043,174.1279297 L671.5541992,160.0869141 L674.144043,160.0869141 L676.949707,170.4970703 C677.0343628,170.8102112 677.0978394,171.2376251 677.1401367,171.7792969 L677.2416992,171.7792969 C677.2755737,171.313797 677.355957,170.8736877 677.4829102,170.4589844 L680.5043945,160.0869141 L682.8022461,160.0869141 L685.7475586,170.5097656 C685.8322144,170.8144531 685.8999023,171.2460938 685.9506836,171.8046875 L686.0649414,171.8046875 C686.0819092,171.4322815 686.1580811,171.0006409 686.293457,170.5097656 L689.0356445,160.0869141 Z M693.8217773,171.09375 C695.0744019,171.9993439 696.4243164,172.4521484 697.871582,172.4521484 C699.8097534,172.4521484 700.7788086,171.8173828 700.7788086,170.5478516 C700.7788086,170.0061798 700.5672607,169.5597229 700.144043,169.2084961 C699.7208862,168.857254 698.8618164,168.4404297 697.5668945,167.9580078 C696.0096436,167.3316956 694.99823,166.7117462 694.5327148,166.0981445 C694.0672607,165.4845276 693.8344727,164.7418518 693.8344727,163.8701172 C693.8344727,162.6259766 694.3613281,161.6293945 695.4150391,160.8803711 C696.46875,160.1313477 697.7658081,159.7568359 699.3061523,159.7568359 C700.4995117,159.7568359 701.6082764,159.9641876 702.6323242,160.3789063 L702.6323242,162.7783203 C701.5828857,162.1012268 700.3937378,161.7626953 699.0649414,161.7626953 C698.2694092,161.7626953 697.6219482,161.9361877 697.1225586,162.2832031 C696.62323,162.6302032 696.3735352,163.0872345 696.3735352,163.6542969 C696.3735352,164.2128906 696.5534058,164.6487579 696.9130859,164.9619141 C697.2728271,165.2750549 698.0704956,165.6770782 699.3061523,166.1679688 C700.8719482,166.7519531 701.9298706,167.3570862 702.4799805,167.9833984 C703.0301514,168.6096954 703.3051758,169.3841095 703.3051758,170.3066406 C703.3051758,171.5930939 702.7783203,172.6065979 701.7246094,173.347168 C700.6708984,174.0877228 699.3061523,174.4580078 697.6303711,174.4580078 C696.1746826,174.4580078 694.9051514,174.1829376 693.8217773,173.6328125 Z M706.0600586,167.2597656 C706.0600586,164.9407501 706.7075195,163.1105042 708.0024414,161.769043 C709.2973633,160.4275665 711.0535889,159.7568359 713.2709961,159.7568359 C715.378418,159.7568359 717.0309448,160.4021759 718.2285156,161.6928711 C719.4261475,162.983551 720.0249023,164.7672424 720.0249023,167.0439453 C720.0249023,169.2613831 719.3859253,171.0514221 718.1079102,172.4140625 C716.8299561,173.7766876 715.1160889,174.4580078 712.9663086,174.4580078 C710.8673706,174.4580078 709.1915894,173.7978516 707.9389648,172.4775391 C706.6864014,171.1572266 706.0600586,169.4179688 706.0600586,167.2597656 Z M708.5991211,167.1835938 C708.5991211,168.8001251 709.0075073,170.0738831 709.8242188,171.0048828 C710.6409912,171.9358673 711.7391357,172.4013672 713.1186523,172.4013672 C714.5405273,172.4013672 715.6239014,171.9464417 716.3686523,171.0366211 C717.1134644,170.1267853 717.4858398,168.8212891 717.4858398,167.1201172 C717.4858398,165.4104767 717.1134644,164.0986328 716.3686523,163.1845703 C715.6239014,162.2705078 714.5405273,161.8134766 713.1186523,161.8134766 C711.722168,161.8134766 710.619812,162.2916565 709.8115234,163.2480469 C709.0032959,164.204422 708.5991211,165.5162659 708.5991211,167.1835938 Z M733.7231445,173.4931641 C732.6483154,174.1363831 731.3533936,174.4580078 729.8383789,174.4580078 C727.8071289,174.4580078 726.1737061,173.8063049 724.9379883,172.5029297 C723.7023315,171.1995392 723.0844727,169.5110626 723.0844727,167.4375 C723.0844727,165.1354065 723.7509766,163.2797852 725.0839844,161.8706055 C726.4169922,160.4614258 728.2006836,159.7568359 730.4350586,159.7568359 C731.7215576,159.7568359 732.8217773,159.9853516 733.7358398,160.4423828 L733.7358398,162.9052734 C732.7456055,162.1773987 731.6453857,161.8134766 730.4350586,161.8134766 C729.0131836,161.8134766 727.855835,162.3064728 726.9628906,163.2924805 C726.0700073,164.2784729 725.6235352,165.5924377 725.6235352,167.234375 C725.6235352,168.8509064 726.0446167,170.1162109 726.8867188,171.0302734 C727.7288818,171.9443359 728.8651123,172.4013672 730.2954102,172.4013672 C731.5057373,172.4013672 732.6483154,172.0035706 733.7231445,171.2080078 Z M749.3891602,174.1279297 L745.9995117,174.1279297 L739.9946289,167.3613281 L739.9438477,167.3613281 L739.9438477,174.1279297 L737.4555664,174.1279297 L737.4555664,153.3457031 L739.9438477,153.3457031 L739.9438477,166.5234375 L739.9946289,166.5234375 L745.6948242,160.0869141 L748.894043,160.0869141 L742.5463867,166.8408203 Z M751.2426758,171.09375 C752.4953003,171.9993439 753.8452148,172.4521484 755.2924805,172.4521484 C757.2306519,172.4521484 758.199707,171.8173828 758.199707,170.5478516 C758.199707,170.0061798 757.9881592,169.5597229 757.5649414,169.2084961 C757.1417847,168.857254 756.2827148,168.4404297 754.987793,167.9580078 C753.430542,167.3316956 752.4191284,166.7117462 751.9536133,166.0981445 C751.4881592,165.4845276 751.2553711,164.7418518 751.2553711,163.8701172 C751.2553711,162.6259766 751.7822266,161.6293945 752.8359375,160.8803711 C753.8896484,160.1313477 755.1867065,159.7568359 756.7270508,159.7568359 C757.9204102,159.7568359 759.0291748,159.9641876 760.0532227,160.3789063 L760.0532227,162.7783203 C759.0037842,162.1012268 757.8146362,161.7626953 756.4858398,161.7626953 C755.6903076,161.7626953 755.0428467,161.9361877 754.543457,162.2832031 C754.0441284,162.6302032 753.7944336,163.0872345 753.7944336,163.6542969 C753.7944336,164.2128906 753.9743042,164.6487579 754.3339844,164.9619141 C754.6937256,165.2750549 755.491394,165.6770782 756.7270508,166.1679688 C758.2928467,166.7519531 759.350769,167.3570862 759.9008789,167.9833984 C760.4510498,168.6096954 760.7260742,169.3841095 760.7260742,170.3066406 C760.7260742,171.5930939 760.1992188,172.6065979 759.1455078,173.347168 C758.0917969,174.0877228 756.7270508,174.4580078 755.0512695,174.4580078 C753.5955811,174.4580078 752.3260498,174.1829376 751.2426758,173.6328125 Z M770.8823242,157.3066406 L772.7358398,158.09375 C772.3465576,158.5761719 771.9572144,159.0416565 771.5678711,159.4902344 L783.2729492,159.4902344 L783.2729492,161.0898438 C781.868042,162.7232971 780.0060425,164.1324768 777.6870117,165.3173828 C780.4969482,166.1891174 783.9246826,166.6334534 787.9702148,166.6503906 C787.5131836,167.3105469 787.0900269,167.9960938 786.7006836,168.7070313 C782.1727295,168.3600159 778.414917,167.5686798 775.4272461,166.3330078 C772.1434326,167.6533203 768.12323,168.6139221 763.3666992,169.2148438 C763.0789795,168.5885315 762.7235107,167.9791565 762.300293,167.3867188 C766.5744019,166.9550781 770.2052612,166.2441406 773.1928711,165.2539063 C771.5678711,164.3229065 770.2518311,163.2141876 769.2446289,161.9277344 C767.9750977,163.1464844 766.6590576,164.2382813 765.2963867,165.203125 C764.9240112,164.7630157 764.4838867,164.3059845 763.9760742,163.8320313 C766.972168,161.783844 769.274292,159.6087189 770.8823242,157.3066406 Z M766.972168,169.3671875 L783.5268555,169.3671875 L783.5268555,177.4414063 L781.6479492,177.4414063 L781.6479492,176.375 L768.8510742,176.375 L768.8510742,177.4414063 L766.972168,177.4414063 Z M763.925293,155.5292969 L774.8813477,155.5292969 C774.4243164,154.8268127 773.8699951,154.0820313 773.2182617,153.2949219 L774.9448242,152.203125 C775.6219482,152.9817657 776.3244019,153.845047 777.0522461,154.7929688 L775.8842773,155.5292969 L786.6245117,155.5292969 L786.6245117,160.2773438 L784.7456055,160.2773438 L784.7456055,157.2050781 L765.8041992,157.2050781 L765.8041992,160.2519531 L763.925293,160.2519531 Z M781.6479492,170.9921875 L768.8510742,170.9921875 L768.8510742,174.75 L781.6479492,174.75 Z M780.581543,161.1152344 L770.8696289,161.1152344 C772.012207,162.4693909 773.5145264,163.5738831 775.3764648,164.4287109 C777.534668,163.5061798 779.2697144,162.4016876 780.581543,161.1152344 Z M800.043457,153.3457031 L801.871582,152.2539063 C802.684082,153.21875 803.4881592,154.268219 804.2836914,155.4023438 L803.0395508,156.1894531 L812.5102539,156.1894531 L812.5102539,167.4375 L810.4790039,167.4375 L810.4790039,166.1171875 L794.4448242,166.1171875 C794.2163086,170.9921875 792.9594727,174.8854065 790.6743164,177.796875 C790.2172852,177.2382813 789.7264404,176.6796875 789.2016602,176.1210938 C791.3683472,173.4804688 792.4516602,169.5195313 792.4516602,164.2382813 L792.4516602,156.1894531 L802.1381836,156.1894531 C801.5203857,155.2415314 800.8221436,154.2936096 800.043457,153.3457031 Z M794.4829102,158.0175781 L794.4829102,164.2890625 L810.4790039,164.2890625 L810.4790039,158.0175781 Z M824.9389648,162.1308594 L841.3666992,162.1308594 L841.3666992,163.78125 L833.7495117,163.78125 L833.0512695,166.5488281 L840.1733398,166.5488281 L840.1733398,174.9785156 C840.1733398,176.4342346 839.5301514,177.1621094 838.2436523,177.1621094 C837.8035889,177.1621094 837.18573,177.1536407 836.3901367,177.1367188 C836.2716675,176.4427032 836.102417,175.8164063 835.8823242,175.2578125 C836.4578857,175.3085938 837.0418701,175.3339844 837.6342773,175.3339844 C838.1420898,175.3339844 838.3959961,175.0716095 838.3959961,174.546875 L838.3959961,168.1230469 L835.7807617,168.1230469 L835.7807617,176.0957031 L834.0795898,176.0957031 L834.0795898,168.1230469 L831.565918,168.1230469 L831.565918,175.9433594 L829.8647461,175.9433594 L829.8647461,168.1230469 L827.3256836,168.1230469 L827.3256836,177.390625 L825.5483398,177.390625 L825.5483398,166.5488281 L831.2104492,166.5488281 L831.7944336,163.78125 L824.9389648,163.78125 Z M837.7104492,160.4804688 L837.7104492,159.6933594 L826.2338867,159.6933594 L826.2338867,153.9804688 L828.0112305,153.9804688 L828.0112305,158.1191406 L831.9467773,158.1191406 L831.9467773,152.3808594 L833.7749023,152.3808594 L833.7749023,158.1191406 L837.7104492,158.1191406 L837.7104492,153.9804688 L839.487793,153.9804688 L839.487793,160.4804688 Z M824.2280273,161.2167969 C823.9064331,163.7135315 823.305542,167.2259064 822.425293,171.7539063 C823.2970581,171.5677032 824.1010742,171.3815002 824.8374023,171.1953125 C824.8204956,171.8554688 824.8289795,172.4563751 824.862793,172.9980469 C822.9500732,173.4720001 820.1571045,174.0813751 816.4838867,174.8261719 L816.1030273,172.921875 C817.8041992,172.6425781 819.3530273,172.3675079 820.7495117,172.0966797 C821.5789795,167.0100861 822.1375732,163.2734375 822.425293,160.8867188 Z M816.7124023,161.5722656 L818.4389648,161.1914063 C818.9975586,163.611969 819.5561523,166.5826721 820.1147461,170.1035156 L818.362793,170.5605469 C817.9057617,167.1751251 817.3556519,164.1790314 816.7124023,161.5722656 Z M816.3823242,157.5859375 L825.0913086,157.5859375 L825.0913086,159.2363281 L816.3823242,159.2363281 Z M818.4643555,153.4472656 L820.0131836,152.5332031 C821.0119019,153.7688751 821.8666992,155.0384064 822.5776367,156.3417969 L820.9018555,157.3574219 C820.2924805,156.1725159 819.4799805,154.8691406 818.4643555,153.4472656 Z M857.9086914,171.4619141 C855.9705811,173.4508362 853.6134644,174.4453125 850.8374023,174.4453125 C848.7723389,174.4453125 847.1325073,173.9396057 845.9179688,172.9282227 C844.7034912,171.9168243 844.0961914,170.5224609 844.0961914,168.7451172 C844.0961914,166.0706329 845.6196289,164.0774689 848.6665039,162.765625 C847.1430664,161.6061096 846.3813477,160.2307892 846.3813477,158.6396484 C846.3813477,157.2685547 846.8595581,156.1746368 847.815918,155.3579102 C848.7723389,154.5411682 850.0291748,154.1328125 851.5864258,154.1328125 C853.0506592,154.1328125 854.2376709,154.5200195 855.1474609,155.2944336 C856.057312,156.0688477 856.512207,157.078125 856.512207,158.3222656 C856.512207,160.3535156 855.2680664,161.8769531 852.7797852,162.8925781 C854.6671753,163.6204376 856.4572144,165.2750549 858.1499023,167.8564453 C859.6310425,165.8167267 860.371582,163.4130859 860.371582,160.6455078 C860.371582,159.9853516 860.2869873,159.3548126 860.1176758,158.7539063 L862.4790039,158.7539063 C862.605957,159.2617188 862.6694336,159.8710938 862.6694336,160.5820313 C862.6694336,162.0631409 862.3795776,163.61409 861.7998047,165.2348633 C861.2200928,166.8556213 860.4139404,168.3557892 859.3813477,169.7353516 C860.0838623,170.6917267 860.6741943,171.3455353 861.1523438,171.6967773 C861.6305542,172.0480042 862.1785889,172.2236328 862.7963867,172.2236328 C863.3041992,172.2236328 863.9051514,172.0882111 864.5991211,171.8173828 L864.5991211,174.0390625 C863.8881836,174.3098907 863.1518555,174.4453125 862.3901367,174.4453125 C861.5946045,174.4453125 860.8773193,174.2591095 860.2382813,173.8867188 C859.5993042,173.5143127 858.8227539,172.7060547 857.9086914,171.4619141 Z M850.9008789,161.8515625 C853.0929565,161.0982971 854.1889648,159.9895782 854.1889648,158.5253906 C854.1889648,157.7721252 853.9393311,157.1733398 853.4399414,156.7290039 C852.9406128,156.284668 852.3227539,156.0625 851.5864258,156.0625 C850.7062378,156.0625 850.0079956,156.30159 849.4916992,156.7797852 C848.9754639,157.2579651 848.7172852,157.8821564 848.7172852,158.6523438 C848.7172852,159.9895782 849.4451904,161.0559845 850.9008789,161.8515625 Z M856.7407227,169.6845703 C855.6912842,168.0426331 854.722168,166.8048401 853.8334961,165.9711914 C852.9448242,165.1375275 851.8192139,164.4625549 850.456543,163.9462891 C849.0770264,164.5048828 848.0910034,165.1544495 847.4985352,165.8950195 C846.9061279,166.6355743 846.6098633,167.5559845 846.6098633,168.65625 C846.6098633,169.7988281 847.003418,170.6980743 847.7905273,171.3540039 C848.5776367,172.0099182 849.6017456,172.3378906 850.862793,172.3378906 C853.1818237,172.3378906 855.1411133,171.4534454 856.7407227,169.6845703 Z M888.4155273,152.6347656 L890.3198242,152.6347656 L890.3198242,174.5214844 C890.3198242,176.2988281 889.4481201,177.1875 887.7045898,177.1875 C886.5366211,177.1875 885.3517456,177.1705627 884.1499023,177.1367188 C884.0822144,176.408844 883.9637451,175.7063751 883.7944336,175.0292969 C885.0131836,175.1647034 886.1303711,175.2324219 887.1459961,175.2324219 C887.9923706,175.2324219 888.4155273,174.7923126 888.4155273,173.9121094 Z M885.5463867,171.5507813 L883.6928711,171.5507813 L883.6928711,155.3769531 L885.5463867,155.3769531 Z M866.9350586,176.578125 C867.9168701,173.4973907 868.7547607,170.2389221 869.4487305,166.8027344 C869.9057617,167.0227814 870.5151367,167.2851563 871.2768555,167.5898438 C870.565918,170.5520782 869.7957764,173.7766876 868.9663086,177.2636719 Z M866.1479492,160.9628906 L867.2397461,159.5410156 C868.9494019,160.7936096 870.3120117,161.8600159 871.3276367,162.7402344 C870.7860107,163.4003906 870.3374023,163.9166565 869.9819336,164.2890625 C868.6616211,163.0533752 867.383667,161.9446564 866.1479492,160.9628906 Z M867.0620117,154.3613281 L868.3061523,153.0664063 C870.2020264,154.6236877 871.4122925,155.6477814 871.9370117,156.1386719 C871.446167,156.6295471 870.972168,157.111969 870.5151367,157.5859375 C869.7026367,156.7565002 868.5516357,155.6816406 867.0620117,154.3613281 Z M875.5932617,153.3203125 L877.2436523,152.4570313 C878.0731201,153.7265625 878.7078857,154.7845001 879.1479492,155.6308594 L877.3706055,156.5703125 C876.795105,155.3515625 876.2026367,154.268219 875.5932617,153.3203125 Z M881.5600586,158.7285156 C881.0014648,162.5878906 880.1212769,165.7955627 878.9194336,168.3515625 C880.1551514,170.501297 881.3146362,172.5748596 882.3979492,174.5722656 L880.5444336,175.5371094 C879.6981201,173.8782501 878.8009644,172.1855469 877.8530273,170.4589844 C876.3634644,173.0826721 874.4591675,175.3085938 872.1401367,177.1367188 C871.784668,176.6627502 871.3276367,176.1549377 870.769043,175.6132813 C873.2911987,173.5820313 875.2801514,171.1783752 876.7358398,168.4023438 C875.4832764,166.1341095 874.15448,163.8066406 872.7495117,161.4199219 L874.3491211,160.5058594 C875.5170898,162.4863281 876.6427612,164.407547 877.7260742,166.2695313 C878.5893555,164.1367188 879.2241211,161.6230469 879.6303711,158.7285156 L872.0893555,158.7285156 L872.0893555,156.9257813 L882.6518555,156.9257813 L882.6518555,158.7285156 Z M906.1508789,166.0410156 C906.1508789,167.1751251 906.0620117,168.1992188 905.8842773,169.1132813 L907.5981445,169.1132813 L907.5981445,173.5820313 C907.5981445,174.5976563 908.1652222,175.1054688 909.2993164,175.1054688 L913.793457,175.1054688 C915.0460815,175.1054688 915.7401123,174.6230469 915.8754883,173.6582031 C916.027832,172.7949219 916.1463623,171.7623596 916.230957,170.5605469 C916.8742065,170.8144531 917.5428467,171.0429688 918.2368164,171.2460938 C918.0844727,172.346344 917.9237061,173.328125 917.7543945,174.1914063 C917.449707,175.985672 916.2225342,176.8828125 914.0727539,176.8828125 L908.8676758,176.8828125 C906.7348633,176.8828125 905.668457,175.8502502 905.668457,173.7851563 L905.668457,170.0019531 C905.2537842,171.4407501 904.585144,172.5748596 903.6625977,173.4042969 C902.0545654,175.0123596 898.9145508,176.4003906 894.2426758,177.5683594 C893.887207,176.9251251 893.5063477,176.2988281 893.1000977,175.6894531 C897.5688477,174.6568909 900.5395508,173.4804688 902.012207,172.1601563 C903.5187378,170.924469 904.246582,168.8847656 904.1958008,166.0410156 Z M896.4770508,163.375 L914.0981445,163.375 L914.0981445,171.8808594 L912.1430664,171.8808594 L912.1430664,165.1523438 L898.4321289,165.1523438 L898.4321289,172.109375 L896.4770508,172.109375 Z M907.4458008,152.4570313 L909.5786133,152.4570313 C909.1977539,153.3880157 908.7999878,154.2766876 908.3852539,155.1230469 L917.7543945,155.1230469 L917.7543945,156.9003906 L907.4711914,156.9003906 C906.5825195,158.4915314 905.6346436,159.921875 904.6274414,161.1914063 C904.0858154,160.7174377 903.5272217,160.3027344 902.9516602,159.9472656 C904.7797852,157.8990784 906.277832,155.4023438 907.4458008,152.4570313 Z M900.3364258,152.4824219 L902.2661133,152.4824219 L902.2661133,162.1816406 L900.3364258,162.1816406 Z M894.5473633,153.21875 L896.4770508,153.21875 L896.4770508,162.0800781 L894.5473633,162.0800781 Z M908.6645508,157.9414063 C911.288269,159.0924377 913.7511597,160.2773438 916.0532227,161.4960938 L915.0375977,163.1464844 C913.0910034,162.0292969 910.6365967,160.7851563 907.6743164,159.4140625 Z M920.5854492,163.1972656 L930.8432617,163.1972656 C931.1056519,162.5625 931.2749023,161.8261719 931.3510742,160.9882813 L933.1791992,161.2421875 C933.0776367,161.953125 932.9295654,162.6048126 932.7348633,163.1972656 L938.2700195,163.1972656 C937.5929565,162.7063751 936.8778076,162.2239532 936.1245117,161.75 L937.1655273,160.6074219 C938.2827148,161.2675781 939.289917,161.9277344 940.1870117,162.5878906 L939.6157227,163.1972656 L944.3510742,163.1972656 L944.3510742,164.8730469 L934.550293,164.8730469 C936.5053711,166.7857971 939.9754639,167.6914063 944.9604492,167.5898438 C944.5541992,168.283844 944.2072144,168.9355469 943.9194336,169.5449219 C943.4708862,169.5110626 943.0392456,169.4729767 942.6245117,169.4306641 L942.6245117,177.1875 L940.847168,177.1875 L940.847168,175.7910156 L935.4135742,175.7910156 L935.4135742,177.1621094 L933.6362305,177.1621094 L933.6362305,169.3164063 L941.7231445,169.3164063 C936.882019,168.6647034 933.7885742,167.1835938 932.4428711,164.8730469 L931.9858398,164.8730469 C931.0379639,166.8873596 927.9656982,168.3684845 922.769043,169.3164063 L930.894043,169.3164063 L930.894043,177.1621094 L929.1166992,177.1621094 L929.1166992,175.7910156 L923.7592773,175.7910156 L923.7592773,177.1875 L921.9819336,177.1875 L921.9819336,169.46875 C921.5333862,169.5533752 921.0678711,169.6380157 920.5854492,169.7226563 C920.331543,169.2148438 920.0014648,168.6139221 919.5952148,167.9199219 C925.2489014,167.1920471 928.6427612,166.1764221 929.7768555,164.8730469 L920.5854492,164.8730469 Z M933.6108398,153.9550781 L942.5991211,153.9550781 L942.5991211,161.4453125 L940.8217773,161.4453125 L940.8217773,160.5566406 L935.3881836,160.5566406 L935.3881836,161.34375 L933.6108398,161.34375 Z M921.956543,153.9550781 L930.8686523,153.9550781 L930.8686523,161.34375 L929.0913086,161.34375 L929.0913086,160.5566406 L923.7338867,160.5566406 L923.7338867,161.5976563 L921.956543,161.5976563 Z M940.8217773,155.5292969 L935.3881836,155.5292969 L935.3881836,158.9824219 L940.8217773,158.9824219 Z M929.0913086,155.5292969 L923.7338867,155.5292969 L923.7338867,158.9824219 L929.0913086,158.9824219 Z M940.847168,170.890625 L935.4135742,170.890625 L935.4135742,174.2167969 L940.847168,174.2167969 Z M929.1166992,170.890625 L923.7592773,170.890625 L923.7592773,174.2167969 L929.1166992,174.2167969 Z M961.1469727,164.3398438 C959.7758789,164.7630157 958.3793945,165.1607971 956.9575195,165.5332031 L956.9575195,168.8847656 L961.0454102,168.8847656 L961.0454102,170.6113281 L956.9575195,170.6113281 L956.9575195,174.3945313 L961.9594727,174.3945313 L961.9594727,160.8613281 L954.5961914,160.8613281 L954.5961914,159.0332031 L961.9594727,159.0332031 L961.9594727,156.0371094 C959.9620972,156.1471252 957.8123779,156.2486877 955.5102539,156.3417969 C955.4086914,155.7662659 955.2902222,155.1653595 955.1547852,154.5390625 C960.5883789,154.4036407 965.7426758,154.0904846 970.6176758,153.5996094 L970.9731445,155.4277344 C968.8995972,155.6054688 966.5213623,155.7747345 963.8383789,155.9355469 L963.8383789,159.0332031 L971.8110352,159.0332031 L971.8110352,160.8613281 L963.8383789,160.8613281 L963.8383789,174.3945313 L968.840332,174.3945313 L968.840332,170.5859375 L964.8032227,170.5859375 L964.8032227,168.859375 L968.840332,168.859375 L968.840332,165.3808594 L964.7270508,165.3808594 L964.7270508,163.6542969 L970.668457,163.6542969 L970.668457,177.5429688 L968.840332,177.5429688 L968.840332,176.1210938 L956.9575195,176.1210938 L956.9575195,177.6191406 L955.1547852,177.6191406 L955.1547852,164.2128906 C957.0336914,163.7558594 958.7433472,163.205719 960.2836914,162.5625 Z M946.496582,166.1425781 C947.5883789,165.6770782 948.6547852,165.1988831 949.6958008,164.7080078 L949.6958008,158.9824219 L946.6743164,158.9824219 L946.6743164,157.2050781 L949.6958008,157.2050781 L949.6958008,152.5332031 L951.5493164,152.5332031 L951.5493164,157.2050781 L954.4692383,157.2050781 L954.4692383,158.9824219 L951.5493164,158.9824219 L951.5493164,163.8066406 C952.4633789,163.3496094 953.3605347,162.8841095 954.2407227,162.4101563 C954.2915039,163.2565002 954.3592529,163.9335938 954.4438477,164.4414063 C953.4790039,164.9322815 952.5141602,165.423172 951.5493164,165.9140625 L951.5493164,174.546875 C951.5493164,176.2734375 950.8129883,177.1790314 949.340332,177.2636719 C948.663269,177.2975159 947.9100342,177.3059845 947.0805664,177.2890625 C947.0128784,176.6289063 946.9113159,175.9264221 946.7758789,175.1816406 C947.5883789,175.2493439 948.257019,175.2832031 948.7817383,175.2832031 C949.3911133,175.2832031 949.6958008,174.9615784 949.6958008,174.3183594 L949.6958008,166.8662109 C948.7140503,167.3655548 947.7322998,167.8691406 946.7504883,168.3769531 Z M980.8374023,166.7519531 L989.6479492,166.7519531 L989.6479492,160.328125 L984.8110352,160.328125 C984.1254883,162.1477814 983.3764648,163.7727814 982.5639648,165.203125 C982.0731201,164.7291565 981.5145264,164.2805939 980.8881836,163.8574219 C982.4962769,161.0305939 983.6811523,157.8736877 984.4428711,154.3867188 L986.4995117,154.9707031 C986.1694336,156.2317657 985.8139648,157.4251251 985.4331055,158.5507813 L989.6479492,158.5507813 L989.6479492,152.6601563 L991.6791992,152.6601563 L991.6791992,158.5507813 L997.7475586,158.5507813 L997.7475586,160.328125 L991.6791992,160.328125 L991.6791992,166.7519531 L998.5854492,166.7519531 L998.5854492,168.5292969 L991.6791992,168.5292969 L991.6791992,177.4160156 L989.6479492,177.4160156 L989.6479492,168.5292969 L980.8374023,168.5292969 Z M973.1948242,165.2285156 C975.5307617,161.7753906 977.409668,157.5943909 978.831543,152.6855469 L980.9135742,153.2949219 C980.2872925,155.266922 979.6102295,157.1162109 978.8823242,158.8427734 L978.8823242,177.4414063 L976.8764648,177.4414063 L976.8764648,163.0322266 C976.0131836,164.6318359 975.0906982,166.1002502 974.1088867,167.4375 C973.8549805,166.7096252 973.550293,165.9732971 973.1948242,165.2285156 Z M1008.7543945,165.5332031 L1008.7543945,163.78125 L1022.5922852,163.78125 L1022.5922852,165.5332031 C1021.2550659,168.470047 1019.6046753,170.7721252 1017.6411133,172.4394531 C1019.7993164,173.8613281 1022.397644,174.8515625 1025.4360352,175.4101563 C1024.8436279,176.171875 1024.3273926,176.8574219 1023.887207,177.4667969 C1020.8657227,176.595047 1018.2335815,175.3297424 1015.9907227,173.6708984 C1013.6886597,175.2281799 1010.7772217,176.5611877 1007.2563477,177.6699219 C1006.8162842,177.0436096 1006.3761597,176.4342346 1005.9360352,175.8417969 C1009.2960815,174.9361877 1012.105957,173.7809143 1014.3657227,172.3759766 C1012.4022217,170.4801331 1010.9760742,168.1992188 1010.0874023,165.5332031 Z M1019.418457,155.6308594 L1013.0708008,155.6308594 L1013.0708008,156.3671875 C1013.0708008,159.4817657 1011.6489258,161.8007813 1008.8051758,163.3242188 C1008.3481445,162.765625 1007.8572998,162.2408752 1007.3325195,161.75 C1009.8377686,160.4635315 1011.090332,158.6861877 1011.090332,156.4179688 L1011.090332,153.7519531 L1021.3989258,153.7519531 L1021.3989258,158.9316406 C1021.3989258,159.6933594 1021.788269,160.0742188 1022.5668945,160.0742188 L1025.3598633,160.0742188 C1025.2752686,160.768219 1025.2075195,161.3945313 1025.1567383,161.953125 L1021.8051758,161.953125 C1020.2140503,161.953125 1019.418457,161.0729065 1019.418457,159.3125 Z M1008.8305664,169.9511719 C1008.8644409,170.7467346 1008.9237061,171.5 1009.0083008,172.2109375 C1006.6893311,173.7174377 1004.9627686,174.9277344 1003.8286133,175.8417969 L1002.6098633,174.1660156 C1003.1854248,173.6074219 1003.4731445,172.8457031 1003.4731445,171.8808594 L1003.4731445,162.8417969 L1000.2485352,162.8417969 L1000.2485352,161.0136719 L1005.402832,161.0136719 L1005.402832,172.2871094 C1006.5031128,171.5592346 1007.6456909,170.7805939 1008.8305664,169.9511719 Z M1003.7016602,153.2949219 C1005.0050659,154.5813751 1006.2492065,155.8847656 1007.434082,157.2050781 L1005.6567383,158.6777344 C1004.4210815,157.0865784 1003.2615967,155.7324219 1002.1782227,154.6152344 Z M1012.0043945,165.5332031 C1012.8592529,167.6914063 1014.2006836,169.5914612 1016.0288086,171.2333984 C1017.8231201,169.8453674 1019.2576904,167.9453125 1020.3325195,165.5332031 Z M1026.8452148,175.2832031 L1030.628418,175.2832031 L1030.628418,163.5273438 L1038.3979492,163.5273438 L1038.3979492,161.8769531 L1027.4545898,161.8769531 L1027.4545898,160.4550781 L1038.3979492,160.4550781 L1038.3979492,159.109375 L1040.2260742,159.109375 L1040.2260742,160.4550781 L1051.4487305,160.4550781 L1051.4487305,161.8769531 L1040.2260742,161.8769531 L1040.2260742,163.5273438 L1048.5288086,163.5273438 L1048.5288086,175.2832031 L1052.0327148,175.2832031 L1052.0327148,176.7558594 L1026.8452148,176.7558594 Z M1029.0541992,153.6757813 L1049.8491211,153.6757813 L1049.8491211,159.3378906 L1048.1225586,159.3378906 L1048.1225586,158.7539063 L1030.8061523,158.7539063 L1030.8061523,159.3378906 L1029.0541992,159.3378906 Z M1032.4057617,175.2832031 L1046.7514648,175.2832031 L1046.7514648,173.6582031 L1032.4057617,173.6582031 Z M1032.4057617,172.3378906 L1046.7514648,172.3378906 L1046.7514648,170.7382813 L1032.4057617,170.7382813 Z M1032.4057617,169.4179688 L1046.7514648,169.4179688 L1046.7514648,167.8183594 L1032.4057617,167.8183594 Z M1046.7514648,164.8984375 L1032.4057617,164.8984375 L1032.4057617,166.4980469 L1046.7514648,166.4980469 Z M1048.1225586,155.046875 L1043.4506836,155.046875 L1043.4506836,157.3828125 L1048.1225586,157.3828125 Z M1037.128418,157.3828125 L1041.7749023,157.3828125 L1041.7749023,155.046875 L1037.128418,155.046875 Z M1030.8061523,157.3828125 L1035.4526367,157.3828125 L1035.4526367,155.046875 L1030.8061523,155.046875 Z" style="fill:rgb(23,55,94);stroke:none" clip-path="url(#clip16)" />
</svg>
